<svg width="90" height="90" viewBox="0 0 90 90" fill="none" xmlns="http://www.w3.org/2000/svg">
<path d="M26.3004 71.0051C24.4663 71.003 22.7085 70.2738 21.4121 68.9767C20.1164 67.6797 19.3878 65.9204 19.3878 64.0872C19.3871 62.2531 20.115 60.4946 21.4114 59.197L59.5472 21.0612C61.3057 19.3645 63.8283 18.7212 66.1843 19.3687C68.5401 20.0155 70.3804 21.857 71.0251 24.2135C71.6699 26.5701 71.0245 29.0922 69.3264 30.8486L31.1625 68.9843C29.873 70.2738 28.1248 71.0004 26.3011 71.0051L26.3004 71.0051Z" fill="#FF7474"/>
<path d="M64.4362 71.0051C62.6014 71.0051 60.8423 70.2752 59.5466 68.9753L21.4109 30.8484C19.8213 29.0776 19.2535 26.6138 19.9078 24.3253C20.5622 22.0373 22.3468 20.246 24.6326 19.5827C26.9178 18.9201 29.3842 19.4784 31.1613 21.0611L69.3252 59.1968C70.6209 60.4946 71.3488 62.2531 71.3481 64.0871C71.3481 65.9205 70.6196 67.6797 69.3238 68.9766C68.0274 70.2737 66.2696 71.0028 64.4355 71.0049L64.4362 71.0051Z" fill="#FF7474"/>
</svg>
