<svg width="90" height="105" viewBox="0 0 90 105" fill="none" xmlns="http://www.w3.org/2000/svg">
<g filter="url(#filter0_d_34_105)">
<path d="M17.8003 21.1666V12.0641H18.6192V21.1666H17.8003ZM24.0083 21.1666V16.4059C24.0083 16.2493 23.9787 16.1033 23.9195 15.9679C23.8602 15.8282 23.7798 15.7076 23.6783 15.6061C23.5767 15.5045 23.4561 15.4241 23.3164 15.3649C23.181 15.3056 23.035 15.276 22.8785 15.276H22.358C22.2014 15.276 22.0533 15.3056 21.9136 15.3649C21.7782 15.4241 21.6597 15.5045 21.5581 15.6061C21.4566 15.7076 21.3762 15.8282 21.3169 15.9679C21.2577 16.1033 21.2281 16.2493 21.2281 16.4059V21.1666H20.4473V14.6666H20.7076L21.1329 15.3268C21.3106 15.0856 21.5328 14.8951 21.7994 14.7555C22.0702 14.6116 22.3643 14.5397 22.6817 14.5397H22.8785C23.1408 14.5397 23.3884 14.5905 23.6211 14.692C23.8539 14.7893 24.057 14.9248 24.2305 15.0983C24.404 15.2718 24.5394 15.4749 24.6368 15.7076C24.7383 15.9404 24.7891 16.1879 24.7891 16.4503V21.1666H24.0083ZM28.585 12.8068C28.4538 12.8068 28.3311 12.8322 28.2168 12.8829C28.1068 12.9295 28.0095 12.9951 27.9248 13.0797C27.8402 13.1643 27.7725 13.2638 27.7217 13.3781C27.6752 13.4923 27.6519 13.615 27.6519 13.7462V14.6666H29.169V15.4093H27.6519V21.1666H26.8711V15.4093H25.6968V14.6666H26.8711V13.7843C26.8711 13.5473 26.9156 13.3252 27.0044 13.1178C27.0933 12.9062 27.216 12.7221 27.3726 12.5656C27.5292 12.409 27.7111 12.2863 27.9185 12.1974C28.1259 12.1085 28.348 12.0641 28.585 12.0641H29.3023V12.8068H28.585ZM34.4248 19.3829C34.4248 19.6453 34.3741 19.8929 34.2725 20.1256C34.1752 20.3584 34.0398 20.5615 33.8663 20.735C33.6928 20.9085 33.4896 21.046 33.2569 21.1476C33.0241 21.2449 32.7766 21.2936 32.5142 21.2936H31.9937C31.7313 21.2936 31.4838 21.2449 31.251 21.1476C31.0183 21.046 30.8151 20.9085 30.6416 20.735C30.4681 20.5615 30.3306 20.3584 30.229 20.1256C30.1317 19.8929 30.083 19.6453 30.083 19.3829V16.4503C30.083 16.1879 30.1317 15.9404 30.229 15.7076C30.3306 15.4749 30.4681 15.2718 30.6416 15.0983C30.8151 14.9248 31.0183 14.7893 31.251 14.692C31.4838 14.5905 31.7313 14.5397 31.9937 14.5397H32.5142C32.7766 14.5397 33.0241 14.5905 33.2569 14.692C33.4896 14.7893 33.6928 14.9248 33.8663 15.0983C34.0398 15.2718 34.1752 15.4749 34.2725 15.7076C34.3741 15.9404 34.4248 16.1879 34.4248 16.4503V19.3829ZM33.6441 16.4059C33.6441 16.2493 33.6145 16.1033 33.5552 15.9679C33.496 15.8282 33.4156 15.7076 33.314 15.6061C33.2124 15.5045 33.0918 15.4241 32.9522 15.3649C32.8168 15.3056 32.6708 15.276 32.5142 15.276H31.9937C31.8371 15.276 31.689 15.3056 31.5494 15.3649C31.4139 15.4241 31.2955 15.5045 31.1939 15.6061C31.0923 15.7076 31.0119 15.8282 30.9527 15.9679C30.8934 16.1033 30.8638 16.2493 30.8638 16.4059V19.4274C30.8638 19.5839 30.8934 19.7321 30.9527 19.8717C31.0119 20.0071 31.0923 20.1256 31.1939 20.2272C31.2955 20.3287 31.4139 20.4091 31.5494 20.4684C31.689 20.5276 31.8371 20.5573 31.9937 20.5573H32.5142C32.6708 20.5573 32.8168 20.5276 32.9522 20.4684C33.0918 20.4091 33.2124 20.3287 33.314 20.2272C33.4156 20.1256 33.496 20.0071 33.5552 19.8717C33.6145 19.7321 33.6441 19.5839 33.6441 19.4274V16.4059ZM37.897 15.4093C37.7404 15.4093 37.5923 15.4389 37.4527 15.4982C37.3173 15.5574 37.1988 15.6378 37.0972 15.7394C36.9956 15.8409 36.9152 15.9615 36.856 16.1012C36.7968 16.2366 36.7671 16.3826 36.7671 16.5392V21.1666H35.9864V14.6666H36.2466L36.6719 15.3268C36.8497 15.0856 37.0718 14.8951 37.3384 14.7555C37.6093 14.6116 37.9034 14.5397 38.2207 14.5397H38.6778V15.4093H37.897ZM46.5806 21.1666V16.4059C46.5806 16.2493 46.551 16.1033 46.4917 15.9679C46.4325 15.8282 46.3521 15.7076 46.2505 15.6061C46.149 15.5045 46.0284 15.4241 45.8887 15.3649C45.7533 15.3056 45.6073 15.276 45.4507 15.276H45.0635C44.9069 15.276 44.7588 15.3056 44.6192 15.3649C44.4838 15.4241 44.3632 15.5045 44.2574 15.6061C44.1558 15.7076 44.0754 15.8282 44.0162 15.9679C43.9569 16.1033 43.9273 16.2493 43.9273 16.4059V21.1666H43.1529V16.4059C43.1529 16.2493 43.1233 16.1033 43.064 15.9679C43.0048 15.8282 42.9222 15.7076 42.8164 15.6061C42.7149 15.5045 42.5943 15.4241 42.4546 15.3649C42.3192 15.3056 42.1732 15.276 42.0166 15.276H41.6294C41.4729 15.276 41.3247 15.3056 41.1851 15.3649C41.0497 15.4241 40.9312 15.5045 40.8296 15.6061C40.7281 15.7076 40.6477 15.8282 40.5884 15.9679C40.5292 16.1033 40.4996 16.2493 40.4996 16.4059V21.1666H39.7188V14.6666H39.979L40.4043 15.3268C40.5821 15.0856 40.8042 14.8951 41.0708 14.7555C41.3417 14.6116 41.6358 14.5397 41.9532 14.5397H42.0166C42.3848 14.5397 42.717 14.6307 43.0132 14.8126C43.3094 14.9946 43.538 15.2358 43.6988 15.5363C43.7792 15.3881 43.8786 15.2527 43.9971 15.13C44.1156 15.0073 44.2468 14.9036 44.3907 14.819C44.5345 14.7301 44.6911 14.6624 44.8604 14.6158C45.0297 14.5651 45.2053 14.5397 45.3872 14.5397H45.4507C45.7131 14.5397 45.9607 14.5905 46.1934 14.692C46.4261 14.7893 46.6293 14.9248 46.8028 15.0983C46.9763 15.2718 47.1117 15.4749 47.209 15.7076C47.3106 15.9404 47.3614 16.1879 47.3614 16.4503V21.1666H46.5806ZM53.0044 21.1666L52.5728 20.5192C52.3951 20.7519 52.1729 20.9402 51.9063 21.0841C51.6397 21.2238 51.3477 21.2936 51.0303 21.2936H50.8335C50.5712 21.2936 50.3236 21.2449 50.0909 21.1476C49.8581 21.046 49.655 20.9085 49.4815 20.735C49.308 20.5615 49.1705 20.3584 49.0689 20.1256C48.9716 19.8929 48.9229 19.6453 48.9229 19.3829V19.3195C48.9229 19.0571 48.9716 18.8095 49.0689 18.5768C49.1705 18.344 49.308 18.1409 49.4815 17.9674C49.655 17.7939 49.8581 17.6585 50.0909 17.5612C50.3236 17.4596 50.5712 17.4088 50.8335 17.4088H52.4839V16.4059C52.4839 16.2493 52.4543 16.1033 52.3951 15.9679C52.3358 15.8282 52.2554 15.7076 52.1539 15.6061C52.0523 15.5045 51.9317 15.4241 51.792 15.3649C51.6566 15.3056 51.5106 15.276 51.354 15.276H50.897C50.7404 15.276 50.5923 15.3056 50.4527 15.3649C50.3173 15.4241 50.1988 15.5045 50.0972 15.6061C49.9956 15.7076 49.9152 15.8282 49.856 15.9679C49.7968 16.1033 49.7671 16.2493 49.7671 16.4059V16.6407L48.9864 16.5138V16.4503C48.9864 16.1879 49.035 15.9404 49.1324 15.7076C49.2339 15.4749 49.3715 15.2718 49.545 15.0983C49.7185 14.9248 49.9216 14.7893 50.1543 14.692C50.3871 14.5905 50.6346 14.5397 50.897 14.5397H51.354C51.6164 14.5397 51.864 14.5905 52.0967 14.692C52.3295 14.7893 52.5326 14.9248 52.7061 15.0983C52.8796 15.2718 53.015 15.4749 53.1123 15.7076C53.2139 15.9404 53.2647 16.1879 53.2647 16.4503V21.1666H53.0044ZM52.4839 18.0182H50.8335C50.677 18.0182 50.5289 18.0478 50.3892 18.1071C50.2538 18.1663 50.1353 18.2488 50.0337 18.3546C49.9322 18.4562 49.8518 18.5768 49.7925 18.7164C49.7333 18.8518 49.7037 18.9978 49.7037 19.1544V19.4274C49.7037 19.5839 49.7333 19.7321 49.7925 19.8717C49.8518 20.0071 49.9322 20.1256 50.0337 20.2272C50.1353 20.3287 50.2538 20.4091 50.3892 20.4684C50.5289 20.5276 50.677 20.5573 50.8335 20.5573H51.354C51.5106 20.5573 51.6566 20.5276 51.792 20.4684C51.9317 20.4091 52.0523 20.3287 52.1539 20.2272C52.2554 20.1256 52.3358 20.0071 52.3951 19.8717C52.4543 19.7321 52.4839 19.5839 52.4839 19.4274V18.0182ZM57.1939 21.1666C56.9569 21.1666 56.7326 21.1222 56.521 21.0333C56.3137 20.9445 56.1317 20.8217 55.9751 20.6652C55.8228 20.5086 55.7001 20.3266 55.607 20.1193C55.5181 19.9119 55.4737 19.6897 55.4737 19.4528V15.4093H54.3057V14.6666H55.4737V13.1051L56.2544 12.9781V14.6666H57.9048V15.4093H56.2544V19.4908C56.2544 19.622 56.2777 19.7448 56.3243 19.859C56.375 19.969 56.4428 20.0664 56.5274 20.151C56.612 20.2356 56.7115 20.3033 56.8257 20.3541C56.94 20.4007 57.0627 20.424 57.1939 20.424H57.9048V21.1666H57.1939ZM59.5425 13.1051V12.0641H60.4502V13.1051H59.5425ZM59.606 21.1666V14.6666H60.3868V21.1666H59.606ZM66.5567 19.3829C66.5567 19.6453 66.5059 19.8929 66.4043 20.1256C66.307 20.3584 66.1716 20.5615 65.9981 20.735C65.8246 20.9085 65.6215 21.046 65.3887 21.1476C65.156 21.2449 64.9084 21.2936 64.646 21.2936H64.1255C63.8632 21.2936 63.6156 21.2449 63.3829 21.1476C63.1501 21.046 62.947 20.9085 62.7735 20.735C62.6 20.5615 62.4624 20.3584 62.3609 20.1256C62.2636 19.8929 62.2149 19.6453 62.2149 19.3829V16.4503C62.2149 16.1879 62.2636 15.9404 62.3609 15.7076C62.4624 15.4749 62.6 15.2718 62.7735 15.0983C62.947 14.9248 63.1501 14.7893 63.3829 14.692C63.6156 14.5905 63.8632 14.5397 64.1255 14.5397H64.646C64.9084 14.5397 65.156 14.5905 65.3887 14.692C65.6215 14.7893 65.8246 14.9248 65.9981 15.0983C66.1716 15.2718 66.307 15.4749 66.4043 15.7076C66.5059 15.9404 66.5567 16.1879 66.5567 16.4503V19.3829ZM65.7759 16.4059C65.7759 16.2493 65.7463 16.1033 65.6871 15.9679C65.6278 15.8282 65.5474 15.7076 65.4458 15.6061C65.3443 15.5045 65.2237 15.4241 65.084 15.3649C64.9486 15.3056 64.8026 15.276 64.646 15.276H64.1255C63.969 15.276 63.8208 15.3056 63.6812 15.3649C63.5458 15.4241 63.4273 15.5045 63.3257 15.6061C63.2242 15.7076 63.1438 15.8282 63.0845 15.9679C63.0253 16.1033 62.9956 16.2493 62.9956 16.4059V19.4274C62.9956 19.5839 63.0253 19.7321 63.0845 19.8717C63.1438 20.0071 63.2242 20.1256 63.3257 20.2272C63.4273 20.3287 63.5458 20.4091 63.6812 20.4684C63.8208 20.5276 63.969 20.5573 64.1255 20.5573H64.646C64.8026 20.5573 64.9486 20.5276 65.084 20.4684C65.2237 20.4091 65.3443 20.3287 65.4458 20.2272C65.5474 20.1256 65.6278 20.0071 65.6871 19.8717C65.7463 19.7321 65.7759 19.5839 65.7759 19.4274V16.4059ZM71.6792 21.1666V16.4059C71.6792 16.2493 71.6496 16.1033 71.5904 15.9679C71.5311 15.8282 71.4507 15.7076 71.3492 15.6061C71.2476 15.5045 71.127 15.4241 70.9873 15.3649C70.8519 15.3056 70.7059 15.276 70.5494 15.276H70.0289C69.8723 15.276 69.7242 15.3056 69.5845 15.3649C69.4491 15.4241 69.3306 15.5045 69.229 15.6061C69.1275 15.7076 69.0471 15.8282 68.9878 15.9679C68.9286 16.1033 68.899 16.2493 68.899 16.4059V21.1666H68.1182V14.6666H68.3785L68.8038 15.3268C68.9815 15.0856 69.2037 14.8951 69.4703 14.7555C69.7411 14.6116 70.0352 14.5397 70.3526 14.5397H70.5494C70.8117 14.5397 71.0593 14.5905 71.292 14.692C71.5248 14.7893 71.7279 14.9248 71.9014 15.0983C72.0749 15.2718 72.2103 15.4749 72.3077 15.7076C72.4092 15.9404 72.46 16.1879 72.46 16.4503V21.1666H71.6792Z" fill="white"/>
</g>
<g filter="url(#filter1_d_34_105)">
<path d="M25.9126 52.8334L23.4434 48.9486H22.3199V52.8334H21.501V43.7308H24.3892C24.6981 43.7308 24.988 43.7901 25.2588 43.9086C25.5297 44.0228 25.7666 44.1815 25.9698 44.3846C26.1729 44.5878 26.3316 44.8269 26.4458 45.1019C26.5643 45.3728 26.6236 45.6626 26.6236 45.9716V46.7079C26.6236 47.0168 26.5643 47.3088 26.4458 47.5839C26.3316 47.8547 26.1729 48.0917 25.9698 48.2948C25.7666 48.4979 25.5297 48.6587 25.2588 48.7772C24.988 48.8915 24.6981 48.9486 24.3892 48.9486L26.8584 52.8334H25.9126ZM25.8047 45.9716C25.8047 45.7684 25.7666 45.5801 25.6905 45.4066C25.6143 45.2289 25.5106 45.0744 25.3794 44.9432C25.2483 44.8078 25.0938 44.702 24.9161 44.6259C24.7426 44.5497 24.5542 44.5116 24.3511 44.5116H22.3199V48.1678H24.3511C24.5542 48.1678 24.7426 48.1298 24.9161 48.0536C25.0938 47.9774 25.2483 47.8737 25.3794 47.7426C25.5106 47.6071 25.6143 47.4527 25.6905 47.2792C25.7666 47.1014 25.8047 46.911 25.8047 46.7079V45.9716ZM32.5079 51.0497C32.5079 51.3121 32.4571 51.5596 32.3555 51.7924C32.2582 52.0251 32.1228 52.2282 31.9493 52.4017C31.7758 52.5752 31.5726 52.7128 31.3399 52.8143C31.1071 52.9117 30.8596 52.9603 30.5972 52.9603H30.0767C29.8143 52.9603 29.5668 52.9117 29.334 52.8143C29.1013 52.7128 28.8982 52.5752 28.7247 52.4017C28.5511 52.2282 28.4136 52.0251 28.3121 51.7924C28.2147 51.5596 28.1661 51.3121 28.1661 51.0497V48.1171C28.1661 47.8547 28.2147 47.6071 28.3121 47.3744C28.4136 47.1416 28.5511 46.9385 28.7247 46.765C28.8982 46.5915 29.1013 46.4561 29.334 46.3588C29.5668 46.2572 29.8143 46.2064 30.0767 46.2064H30.5972C30.8596 46.2064 31.1071 46.2572 31.3399 46.3588C31.5726 46.4561 31.7758 46.5915 31.9493 46.765C32.1228 46.9385 32.2582 47.1416 32.3555 47.3744C32.4571 47.6071 32.5079 47.8547 32.5079 48.1171V49.6469H28.9468V51.0941C28.9468 51.2507 28.9764 51.3988 29.0357 51.5385C29.0949 51.6739 29.1753 51.7924 29.2769 51.8939C29.3785 51.9955 29.4969 52.0759 29.6324 52.1351C29.772 52.1944 29.9201 52.224 30.0767 52.224H30.5972C30.7538 52.224 30.8998 52.1944 31.0352 52.1351C31.1748 52.0759 31.2955 51.9955 31.397 51.8939C31.4986 51.7924 31.579 51.6739 31.6382 51.5385C31.6975 51.3988 31.7271 51.2507 31.7271 51.0941V50.6625L32.5079 50.7894V51.0497ZM31.7271 48.0726C31.7271 47.9161 31.6975 47.7701 31.6382 47.6346C31.579 47.495 31.4986 47.3744 31.397 47.2728C31.2955 47.1713 31.1748 47.0909 31.0352 47.0316C30.8998 46.9724 30.7538 46.9427 30.5972 46.9427H30.0767C29.9201 46.9427 29.772 46.9724 29.6324 47.0316C29.4969 47.0909 29.3785 47.1713 29.2769 47.2728C29.1753 47.3744 29.0949 47.495 29.0357 47.6346C28.9764 47.7701 28.9468 47.9161 28.9468 48.0726V49.0375H31.7271V48.0726ZM38.4747 53.6522C38.4747 53.9146 38.4239 54.1558 38.3223 54.3759C38.225 54.5959 38.0896 54.7842 37.9161 54.9408C37.7426 55.0974 37.5394 55.218 37.3067 55.3026C37.0739 55.3915 36.8264 55.4359 36.564 55.4359H36.2403C35.9779 55.4359 35.7303 55.3915 35.4976 55.3026C35.2649 55.218 35.0617 55.0974 34.8882 54.9408C34.7147 54.7842 34.5772 54.5959 34.4756 54.3759C34.3783 54.1558 34.3296 53.9146 34.3296 53.6522V53.6268C34.3296 53.3729 34.3762 53.1402 34.4693 52.9286C34.5624 52.717 34.6893 52.5329 34.8501 52.3763C34.647 52.2536 34.4841 52.0886 34.3614 51.8812C34.2429 51.6696 34.1836 51.4369 34.1836 51.183C34.1836 50.9545 34.2323 50.7429 34.3296 50.5482C34.427 50.3493 34.5603 50.1885 34.7295 50.0658C34.5264 49.8881 34.3656 49.6744 34.2471 49.4247C34.1286 49.175 34.0694 48.9021 34.0694 48.6058V48.1171C34.0694 47.8547 34.118 47.6071 34.2154 47.3744C34.3169 47.1416 34.4545 46.9385 34.628 46.765C34.8015 46.5915 35.0046 46.4561 35.2373 46.3588C35.4701 46.2572 35.7177 46.2064 35.98 46.2064H36.3038C36.6211 46.2064 36.9131 46.2784 37.1797 46.4222C37.4506 46.5619 37.6748 46.7523 37.8526 46.9935L38.2779 46.3334H38.5381V48.6058C38.5381 48.8682 38.4873 49.1158 38.3858 49.3485C38.2885 49.5813 38.153 49.7844 37.9795 49.9579C37.806 50.1314 37.6029 50.2689 37.3702 50.3705C37.1374 50.4678 36.8899 50.5165 36.6275 50.5165H35.4976C35.4087 50.5165 35.3241 50.5355 35.2437 50.5736C35.1633 50.6075 35.0914 50.654 35.0279 50.7133C34.9686 50.7725 34.9221 50.8444 34.8882 50.9291C34.8544 51.0095 34.8374 51.0941 34.8374 51.183C34.8374 51.2719 34.8544 51.3565 34.8882 51.4369C34.9221 51.5173 34.9686 51.5892 35.0279 51.6527C35.0914 51.712 35.1633 51.7585 35.2437 51.7924C35.3241 51.8262 35.4087 51.8431 35.4976 51.8431H36.564C36.8264 51.8431 37.0739 51.8876 37.3067 51.9764C37.5394 52.0611 37.7426 52.1817 37.9161 52.3383C38.0896 52.4948 38.225 52.6831 38.3223 52.9032C38.4239 53.1233 38.4747 53.3645 38.4747 53.6268V53.6522ZM37.7637 48.0726C37.7637 47.9161 37.7341 47.7701 37.6748 47.6346C37.6156 47.495 37.5331 47.3744 37.4273 47.2728C37.3257 47.1713 37.2051 47.0909 37.0655 47.0316C36.9301 46.9724 36.7841 46.9427 36.6275 46.9427H35.98C35.8234 46.9427 35.6753 46.9724 35.5357 47.0316C35.4003 47.0909 35.2818 47.1713 35.1802 47.2728C35.0787 47.3744 34.9983 47.495 34.939 47.6346C34.8798 47.7701 34.8501 47.9161 34.8501 48.0726V48.6503C34.8501 48.8068 34.8798 48.955 34.939 49.0946C34.9983 49.23 35.0787 49.3485 35.1802 49.4501C35.2818 49.5516 35.4003 49.632 35.5357 49.6913C35.6753 49.7505 35.8234 49.7802 35.98 49.7802H36.6275C36.7841 49.7802 36.9301 49.7505 37.0655 49.6913C37.2051 49.632 37.3257 49.5516 37.4273 49.4501C37.5331 49.3485 37.6156 49.23 37.6748 49.0946C37.7341 48.955 37.7637 48.8068 37.7637 48.6503V48.0726ZM37.732 53.5887C37.732 53.4322 37.7024 53.2904 37.6431 53.1635C37.5839 53.0407 37.5035 52.9371 37.4019 52.8524C37.3003 52.7678 37.1797 52.7022 37.0401 52.6556C36.9047 52.6091 36.7587 52.5858 36.6021 52.5858H36.2022C36.0456 52.5858 35.8975 52.6091 35.7579 52.6556C35.6224 52.7022 35.5039 52.7678 35.4024 52.8524C35.3008 52.9371 35.2204 53.0407 35.1612 53.1635C35.1019 53.2904 35.0723 53.4322 35.0723 53.5887V53.6903C35.0723 53.8469 35.1019 53.9865 35.1612 54.1093C35.2204 54.232 35.3008 54.3357 35.4024 54.4203C35.5039 54.5092 35.6224 54.5769 35.7579 54.6234C35.8975 54.67 36.0456 54.6932 36.2022 54.6932H36.6021C36.7587 54.6932 36.9047 54.67 37.0401 54.6234C37.1797 54.5769 37.3003 54.5092 37.4019 54.4203C37.5035 54.3357 37.5839 54.232 37.6431 54.1093C37.7024 53.9865 37.732 53.8469 37.732 53.6903V53.5887ZM44.0542 52.8334L43.6226 52.1859C43.4449 52.4187 43.2227 52.607 42.9561 52.7509C42.6895 52.8905 42.3975 52.9603 42.0801 52.9603H41.8833C41.621 52.9603 41.3734 52.9117 41.1407 52.8143C40.9079 52.7128 40.7048 52.5752 40.5313 52.4017C40.3578 52.2282 40.2203 52.0251 40.1187 51.7924C40.0214 51.5596 39.9727 51.3121 39.9727 51.0497V50.9862C39.9727 50.7238 40.0214 50.4763 40.1187 50.2435C40.2203 50.0108 40.3578 49.8077 40.5313 49.6342C40.7048 49.4607 40.9079 49.3252 41.1407 49.2279C41.3734 49.1263 41.621 49.0756 41.8833 49.0756H43.5337V48.0726C43.5337 47.9161 43.5041 47.7701 43.4449 47.6346C43.3856 47.495 43.3052 47.3744 43.2037 47.2728C43.1021 47.1713 42.9815 47.0909 42.8418 47.0316C42.7064 46.9724 42.5604 46.9427 42.4039 46.9427H41.9468C41.7902 46.9427 41.6421 46.9724 41.5025 47.0316C41.3671 47.0909 41.2486 47.1713 41.147 47.2728C41.0455 47.3744 40.965 47.495 40.9058 47.6346C40.8466 47.7701 40.8169 47.9161 40.8169 48.0726V48.3075L40.0362 48.1805V48.1171C40.0362 47.8547 40.0848 47.6071 40.1822 47.3744C40.2837 47.1416 40.4213 46.9385 40.5948 46.765C40.7683 46.5915 40.9714 46.4561 41.2041 46.3588C41.4369 46.2572 41.6844 46.2064 41.9468 46.2064H42.4039C42.6662 46.2064 42.9138 46.2572 43.1465 46.3588C43.3793 46.4561 43.5824 46.5915 43.7559 46.765C43.9294 46.9385 44.0648 47.1416 44.1622 47.3744C44.2637 47.6071 44.3145 47.8547 44.3145 48.1171V52.8334H44.0542ZM43.5337 49.6849H41.8833C41.7268 49.6849 41.5787 49.7146 41.439 49.7738C41.3036 49.833 41.1851 49.9156 41.0835 50.0214C40.982 50.1229 40.9016 50.2435 40.8423 50.3832C40.7831 50.5186 40.7535 50.6646 40.7535 50.8212V51.0941C40.7535 51.2507 40.7831 51.3988 40.8423 51.5385C40.9016 51.6739 40.982 51.7924 41.0835 51.8939C41.1851 51.9955 41.3036 52.0759 41.439 52.1351C41.5787 52.1944 41.7268 52.224 41.8833 52.224H42.4039C42.5604 52.224 42.7064 52.1944 42.8418 52.1351C42.9815 52.0759 43.1021 51.9955 43.2037 51.8939C43.3052 51.7924 43.3856 51.6739 43.4449 51.5385C43.5041 51.3988 43.5337 51.2507 43.5337 51.0941V49.6849ZM47.7867 47.076C47.6301 47.076 47.482 47.1057 47.3423 47.1649C47.2069 47.2242 47.0884 47.3046 46.9869 47.4061C46.8853 47.5077 46.8049 47.6283 46.7456 47.7679C46.6864 47.9034 46.6568 48.0494 46.6568 48.2059V52.8334H45.876V46.3334H46.1363L46.5616 46.9935C46.7393 46.7523 46.9615 46.5619 47.2281 46.4222C47.4989 46.2784 47.793 46.2064 48.1104 46.2064H48.5674V47.076H47.7867ZM53.69 52.8334L53.2583 52.1732C53.0806 52.4144 52.8584 52.607 52.5918 52.7509C52.3252 52.8905 52.0332 52.9603 51.7159 52.9603H51.5191C51.2567 52.9603 51.0092 52.9117 50.7764 52.8143C50.5437 52.7128 50.3405 52.5752 50.167 52.4017C49.9935 52.2282 49.856 52.0251 49.7544 51.7924C49.6571 51.5596 49.6084 51.3121 49.6084 51.0497V48.1171C49.6084 47.8547 49.6571 47.6071 49.7544 47.3744C49.856 47.1416 49.9935 46.9385 50.167 46.765C50.3405 46.5915 50.5437 46.4561 50.7764 46.3588C51.0092 46.2572 51.2567 46.2064 51.5191 46.2064H51.7159C52.0079 46.2064 52.2787 46.2657 52.5284 46.3842C52.778 46.5026 52.9917 46.6677 53.1695 46.8793V43.7308H53.9502V52.8334H53.69ZM53.1695 48.0726C53.1695 47.9161 53.1399 47.7701 53.0806 47.6346C53.0214 47.495 52.941 47.3744 52.8394 47.2728C52.7378 47.1713 52.6172 47.0909 52.4776 47.0316C52.3422 46.9724 52.1962 46.9427 52.0396 46.9427H51.5191C51.3625 46.9427 51.2144 46.9724 51.0747 47.0316C50.9393 47.0909 50.8208 47.1713 50.7193 47.2728C50.6177 47.3744 50.5373 47.495 50.4781 47.6346C50.4188 47.7701 50.3892 47.9161 50.3892 48.0726V51.0941C50.3892 51.2507 50.4188 51.3988 50.4781 51.5385C50.5373 51.6739 50.6177 51.7924 50.7193 51.8939C50.8208 51.9955 50.9393 52.0759 51.0747 52.1351C51.2144 52.1944 51.3625 52.224 51.5191 52.224H52.0396C52.1962 52.224 52.3422 52.1944 52.4776 52.1351C52.6172 52.0759 52.7378 51.9955 52.8394 51.8939C52.941 51.7924 53.0214 51.6739 53.0806 51.5385C53.1399 51.3988 53.1695 51.2507 53.1695 51.0941V48.0726ZM55.7085 44.7719V43.7308H56.6163V44.7719H55.7085ZM55.772 52.8334V46.3334H56.5528V52.8334H55.772ZM61.9419 52.8334V48.0726C61.9419 47.9161 61.9123 47.7701 61.8531 47.6346C61.7938 47.495 61.7134 47.3744 61.6119 47.2728C61.5103 47.1713 61.3897 47.0909 61.25 47.0316C61.1146 46.9724 60.9686 46.9427 60.8121 46.9427H60.2915C60.135 46.9427 59.9869 46.9724 59.8472 47.0316C59.7118 47.0909 59.5933 47.1713 59.4917 47.2728C59.3902 47.3744 59.3098 47.495 59.2505 47.6346C59.1913 47.7701 59.1617 47.9161 59.1617 48.0726V52.8334H58.3809V46.3334H58.6412L59.0664 46.9935C59.2442 46.7523 59.4664 46.5619 59.733 46.4222C60.0038 46.2784 60.2979 46.2064 60.6153 46.2064H60.8121C61.0744 46.2064 61.322 46.2572 61.5547 46.3588C61.7875 46.4561 61.9906 46.5915 62.1641 46.765C62.3376 46.9385 62.473 47.1416 62.5704 47.3744C62.6719 47.6071 62.7227 47.8547 62.7227 48.1171V52.8334H61.9419ZM68.6895 53.6522C68.6895 53.9146 68.6387 54.1558 68.5372 54.3759C68.4398 54.5959 68.3044 54.7842 68.1309 54.9408C67.9574 55.0974 67.7543 55.218 67.5215 55.3026C67.2888 55.3915 67.0412 55.4359 66.7789 55.4359H66.4551C66.1928 55.4359 65.9452 55.3915 65.7124 55.3026C65.4797 55.218 65.2766 55.0974 65.1031 54.9408C64.9296 54.7842 64.792 54.5959 64.6905 54.3759C64.5931 54.1558 64.5445 53.9146 64.5445 53.6522V53.6268C64.5445 53.3729 64.591 53.1402 64.6841 52.9286C64.7772 52.717 64.9042 52.5329 65.065 52.3763C64.8619 52.2536 64.6989 52.0886 64.5762 51.8812C64.4577 51.6696 64.3985 51.4369 64.3985 51.183C64.3985 50.9545 64.4471 50.7429 64.5445 50.5482C64.6418 50.3493 64.7751 50.1885 64.9444 50.0658C64.7413 49.8881 64.5804 49.6744 64.462 49.4247C64.3435 49.175 64.2842 48.9021 64.2842 48.6058V48.1171C64.2842 47.8547 64.3329 47.6071 64.4302 47.3744C64.5318 47.1416 64.6693 46.9385 64.8428 46.765C65.0163 46.5915 65.2194 46.4561 65.4522 46.3588C65.6849 46.2572 65.9325 46.2064 66.1949 46.2064H66.5186C66.836 46.2064 67.128 46.2784 67.3946 46.4222C67.6654 46.5619 67.8897 46.7523 68.0674 46.9935L68.4927 46.3334H68.753V48.6058C68.753 48.8682 68.7022 49.1158 68.6006 49.3485C68.5033 49.5813 68.3679 49.7844 68.1944 49.9579C68.0209 50.1314 67.8178 50.2689 67.585 50.3705C67.3523 50.4678 67.1047 50.5165 66.8423 50.5165H65.7124C65.6236 50.5165 65.5389 50.5355 65.4585 50.5736C65.3781 50.6075 65.3062 50.654 65.2427 50.7133C65.1835 50.7725 65.1369 50.8444 65.1031 50.9291C65.0692 51.0095 65.0523 51.0941 65.0523 51.183C65.0523 51.2719 65.0692 51.3565 65.1031 51.4369C65.1369 51.5173 65.1835 51.5892 65.2427 51.6527C65.3062 51.712 65.3781 51.7585 65.4585 51.7924C65.5389 51.8262 65.6236 51.8431 65.7124 51.8431H66.7789C67.0412 51.8431 67.2888 51.8876 67.5215 51.9764C67.7543 52.0611 67.9574 52.1817 68.1309 52.3383C68.3044 52.4948 68.4398 52.6831 68.5372 52.9032C68.6387 53.1233 68.6895 53.3645 68.6895 53.6268V53.6522ZM67.9786 48.0726C67.9786 47.9161 67.9489 47.7701 67.8897 47.6346C67.8304 47.495 67.7479 47.3744 67.6421 47.2728C67.5406 47.1713 67.42 47.0909 67.2803 47.0316C67.1449 46.9724 66.9989 46.9427 66.8423 46.9427H66.1949C66.0383 46.9427 65.8902 46.9724 65.7505 47.0316C65.6151 47.0909 65.4966 47.1713 65.3951 47.2728C65.2935 47.3744 65.2131 47.495 65.1539 47.6346C65.0946 47.7701 65.065 47.9161 65.065 48.0726V48.6503C65.065 48.8068 65.0946 48.955 65.1539 49.0946C65.2131 49.23 65.2935 49.3485 65.3951 49.4501C65.4966 49.5516 65.6151 49.632 65.7505 49.6913C65.8902 49.7505 66.0383 49.7802 66.1949 49.7802H66.8423C66.9989 49.7802 67.1449 49.7505 67.2803 49.6913C67.42 49.632 67.5406 49.5516 67.6421 49.4501C67.7479 49.3485 67.8304 49.23 67.8897 49.0946C67.9489 48.955 67.9786 48.8068 67.9786 48.6503V48.0726ZM67.9468 53.5887C67.9468 53.4322 67.9172 53.2904 67.858 53.1635C67.7987 53.0407 67.7183 52.9371 67.6167 52.8524C67.5152 52.7678 67.3946 52.7022 67.2549 52.6556C67.1195 52.6091 66.9735 52.5858 66.8169 52.5858H66.417C66.2605 52.5858 66.1123 52.6091 65.9727 52.6556C65.8373 52.7022 65.7188 52.7678 65.6172 52.8524C65.5157 52.9371 65.4353 53.0407 65.376 53.1635C65.3168 53.2904 65.2872 53.4322 65.2872 53.5887V53.6903C65.2872 53.8469 65.3168 53.9865 65.376 54.1093C65.4353 54.232 65.5157 54.3357 65.6172 54.4203C65.7188 54.5092 65.8373 54.5769 65.9727 54.6234C66.1123 54.67 66.2605 54.6932 66.417 54.6932H66.8169C66.9735 54.6932 67.1195 54.67 67.2549 54.6234C67.3946 54.5769 67.5152 54.5092 67.6167 54.4203C67.7183 54.3357 67.7987 54.232 67.858 54.1093C67.9172 53.9865 67.9468 53.8469 67.9468 53.6903V53.5887Z" fill="white"/>
</g>
<g filter="url(#filter2_d_34_105)">
<path d="M23.0245 81.099C23.0245 81.4079 22.9652 81.6978 22.8467 81.9686C22.7325 82.2395 22.5738 82.4764 22.3706 82.6796C22.1675 82.8827 21.9284 83.0435 21.6534 83.162C21.3825 83.2762 21.0927 83.3334 20.7837 83.3334H17.9019V74.2308H20.7837C21.0927 74.2308 21.3825 74.2901 21.6534 74.4086C21.9284 74.5228 22.1675 74.6815 22.3706 74.8846C22.5738 75.0878 22.7325 75.3269 22.8467 75.6019C22.9652 75.8728 23.0245 76.1626 23.0245 76.4716V81.099ZM22.2056 76.4716C22.2056 76.2684 22.1675 76.0801 22.0914 75.9066C22.0152 75.7289 21.9094 75.5744 21.774 75.4432C21.6428 75.3078 21.4883 75.202 21.3106 75.1259C21.1371 75.0497 20.9488 75.0116 20.7456 75.0116H18.7207V82.5526H20.7456C20.9488 82.5526 21.1371 82.5145 21.3106 82.4384C21.4883 82.3622 21.6428 82.2585 21.774 82.1273C21.9094 81.9961 22.0152 81.8438 22.0914 81.6703C22.1675 81.4926 22.2056 81.3021 22.2056 81.099V76.4716ZM29.0547 81.5497C29.0547 81.8121 29.0039 82.0596 28.9024 82.2924C28.8051 82.5251 28.6696 82.7282 28.4961 82.9017C28.3226 83.0752 28.1195 83.2128 27.8868 83.3143C27.654 83.4117 27.4065 83.4603 27.1441 83.4603H26.6236C26.3612 83.4603 26.1136 83.4117 25.8809 83.3143C25.6482 83.2128 25.445 83.0752 25.2715 82.9017C25.098 82.7282 24.9605 82.5251 24.8589 82.2924C24.7616 82.0596 24.7129 81.8121 24.7129 81.5497V78.6171C24.7129 78.3547 24.7616 78.1071 24.8589 77.8744C24.9605 77.6416 25.098 77.4385 25.2715 77.265C25.445 77.0915 25.6482 76.9561 25.8809 76.8588C26.1136 76.7572 26.3612 76.7064 26.6236 76.7064H27.1441C27.4065 76.7064 27.654 76.7572 27.8868 76.8588C28.1195 76.9561 28.3226 77.0915 28.4961 77.265C28.6696 77.4385 28.8051 77.6416 28.9024 77.8744C29.0039 78.1071 29.0547 78.3547 29.0547 78.6171V81.5497ZM28.274 78.5726C28.274 78.4161 28.2443 78.2701 28.1851 78.1346C28.1259 77.995 28.0455 77.8744 27.9439 77.7728C27.8423 77.6713 27.7217 77.5909 27.5821 77.5316C27.4467 77.4724 27.3007 77.4427 27.1441 77.4427H26.6236C26.467 77.4427 26.3189 77.4724 26.1792 77.5316C26.0438 77.5909 25.9253 77.6713 25.8238 77.7728C25.7222 77.8744 25.6418 77.995 25.5826 78.1346C25.5233 78.2701 25.4937 78.4161 25.4937 78.5726V81.5941C25.4937 81.7507 25.5233 81.8988 25.5826 82.0385C25.6418 82.1739 25.7222 82.2924 25.8238 82.3939C25.9253 82.4955 26.0438 82.5759 26.1792 82.6351C26.3189 82.6944 26.467 82.724 26.6236 82.724H27.1441C27.3007 82.724 27.4467 82.6944 27.5821 82.6351C27.7217 82.5759 27.8423 82.4955 27.9439 82.3939C28.0455 82.2924 28.1259 82.1739 28.1851 82.0385C28.2443 81.8988 28.274 81.7507 28.274 81.5941V78.5726ZM34.958 81.5497C34.958 81.8121 34.9073 82.0596 34.8057 82.2924C34.7084 82.5251 34.573 82.7282 34.3995 82.9017C34.226 83.0752 34.0228 83.2128 33.7901 83.3143C33.5573 83.4117 33.3098 83.4603 33.0474 83.4603H32.5269C32.2645 83.4603 32.017 83.4117 31.7842 83.3143C31.5515 83.2128 31.3483 83.0752 31.1748 82.9017C31.0013 82.7282 30.8638 82.5251 30.7622 82.2924C30.6649 82.0596 30.6163 81.8121 30.6163 81.5497V78.6171C30.6163 78.3547 30.6649 78.1071 30.7622 77.8744C30.8638 77.6416 31.0013 77.4385 31.1748 77.265C31.3483 77.0915 31.5515 76.9561 31.7842 76.8588C32.017 76.7572 32.2645 76.7064 32.5269 76.7064H33.0474C33.3098 76.7064 33.5573 76.7572 33.7901 76.8588C34.0228 76.9561 34.226 77.0915 34.3995 77.265C34.573 77.4385 34.7084 77.6416 34.8057 77.8744C34.9073 78.1071 34.958 78.3547 34.958 78.6171V78.8773L34.1773 79.0043V78.5726C34.1773 78.4161 34.1477 78.2701 34.0884 78.1346C34.0292 77.995 33.9488 77.8744 33.8472 77.7728C33.7456 77.6713 33.625 77.5909 33.4854 77.5316C33.35 77.4724 33.204 77.4427 33.0474 77.4427H32.5269C32.3703 77.4427 32.2222 77.4724 32.0826 77.5316C31.9471 77.5909 31.8287 77.6713 31.7271 77.7728C31.6255 77.8744 31.5451 77.995 31.4859 78.1346C31.4266 78.2701 31.397 78.4161 31.397 78.5726V81.5941C31.397 81.7507 31.4266 81.8988 31.4859 82.0385C31.5451 82.1739 31.6255 82.2924 31.7271 82.3939C31.8287 82.4955 31.9471 82.5759 32.0826 82.6351C32.2222 82.6944 32.3703 82.724 32.5269 82.724H33.0474C33.204 82.724 33.35 82.6944 33.4854 82.6351C33.625 82.5759 33.7456 82.4955 33.8472 82.3939C33.9488 82.2924 34.0292 82.1739 34.0884 82.0385C34.1477 81.8988 34.1773 81.7507 34.1773 81.5941V81.1625L34.958 81.2894V81.5497ZM40.6011 83.3334L40.1695 82.6732C39.9917 82.9144 39.7696 83.107 39.503 83.2509C39.2364 83.3905 38.9444 83.4603 38.627 83.4603H38.4302C38.1678 83.4603 37.9203 83.4117 37.6875 83.3143C37.4548 83.2128 37.2517 83.0752 37.0782 82.9017C36.9047 82.7282 36.7671 82.5251 36.6656 82.2924C36.5682 82.0596 36.5196 81.8121 36.5196 81.5497V76.8334H37.3003V81.5941C37.3003 81.7507 37.33 81.8988 37.3892 82.0385C37.4484 82.1739 37.5289 82.2924 37.6304 82.3939C37.732 82.4955 37.8505 82.5759 37.9859 82.6351C38.1255 82.6944 38.2736 82.724 38.4302 82.724H38.9507C39.1073 82.724 39.2533 82.6944 39.3887 82.6351C39.5284 82.5759 39.649 82.4955 39.7505 82.3939C39.8521 82.2924 39.9325 82.1739 39.9917 82.0385C40.051 81.8988 40.0806 81.7507 40.0806 81.5941V76.8334H40.8614V83.3334H40.6011ZM49.2847 83.3334V78.5726C49.2847 78.4161 49.2551 78.2701 49.1958 78.1346C49.1366 77.995 49.0562 77.8744 48.9546 77.7728C48.8531 77.6713 48.7325 77.5909 48.5928 77.5316C48.4574 77.4724 48.3114 77.4427 48.1548 77.4427H47.7676C47.611 77.4427 47.4629 77.4724 47.3233 77.5316C47.1879 77.5909 47.0673 77.6713 46.9615 77.7728C46.8599 77.8744 46.7795 77.995 46.7203 78.1346C46.661 78.2701 46.6314 78.4161 46.6314 78.5726V83.3334H45.857V78.5726C45.857 78.4161 45.8274 78.2701 45.7681 78.1346C45.7089 77.995 45.6263 77.8744 45.5205 77.7728C45.419 77.6713 45.2984 77.5909 45.1587 77.5316C45.0233 77.4724 44.8773 77.4427 44.7207 77.4427H44.3335C44.177 77.4427 44.0289 77.4724 43.8892 77.5316C43.7538 77.5909 43.6353 77.6713 43.5337 77.7728C43.4322 77.8744 43.3518 77.995 43.2925 78.1346C43.2333 78.2701 43.2037 78.4161 43.2037 78.5726V83.3334H42.4229V76.8334H42.6831L43.1084 77.4935C43.2862 77.2523 43.5083 77.0619 43.7749 76.9222C44.0458 76.7784 44.3399 76.7064 44.6573 76.7064H44.7207C45.0889 76.7064 45.4211 76.7974 45.7173 76.9794C46.0136 77.1613 46.2421 77.4025 46.4029 77.703C46.4833 77.5549 46.5827 77.4195 46.7012 77.2968C46.8197 77.174 46.9509 77.0704 47.0948 76.9857C47.2386 76.8969 47.3952 76.8291 47.5645 76.7826C47.7338 76.7318 47.9094 76.7064 48.0914 76.7064H48.1548C48.4172 76.7064 48.6648 76.7572 48.8975 76.8588C49.1303 76.9561 49.3334 77.0915 49.5069 77.265C49.6804 77.4385 49.8158 77.6416 49.9131 77.8744C50.0147 78.1071 50.0655 78.3547 50.0655 78.6171V83.3334H49.2847ZM55.9688 81.5497C55.9688 81.8121 55.918 82.0596 55.8164 82.2924C55.7191 82.5251 55.5837 82.7282 55.4102 82.9017C55.2367 83.0752 55.0336 83.2128 54.8008 83.3143C54.5681 83.4117 54.3205 83.4603 54.0581 83.4603H53.5376C53.2753 83.4603 53.0277 83.4117 52.795 83.3143C52.5622 83.2128 52.3591 83.0752 52.1856 82.9017C52.0121 82.7282 51.8746 82.5251 51.773 82.2924C51.6757 82.0596 51.627 81.8121 51.627 81.5497V78.6171C51.627 78.3547 51.6757 78.1071 51.773 77.8744C51.8746 77.6416 52.0121 77.4385 52.1856 77.265C52.3591 77.0915 52.5622 76.9561 52.795 76.8588C53.0277 76.7572 53.2753 76.7064 53.5376 76.7064H54.0581C54.3205 76.7064 54.5681 76.7572 54.8008 76.8588C55.0336 76.9561 55.2367 77.0915 55.4102 77.265C55.5837 77.4385 55.7191 77.6416 55.8164 77.8744C55.918 78.1071 55.9688 78.3547 55.9688 78.6171V80.1469H52.4078V81.5941C52.4078 81.7507 52.4374 81.8988 52.4966 82.0385C52.5559 82.1739 52.6363 82.2924 52.7378 82.3939C52.8394 82.4955 52.9579 82.5759 53.0933 82.6351C53.233 82.6944 53.3811 82.724 53.5376 82.724H54.0581C54.2147 82.724 54.3607 82.6944 54.4961 82.6351C54.6358 82.5759 54.7564 82.4955 54.858 82.3939C54.9595 82.2924 55.0399 82.1739 55.0992 82.0385C55.1584 81.8988 55.188 81.7507 55.188 81.5941V81.1625L55.9688 81.2894V81.5497ZM55.188 78.5726C55.188 78.4161 55.1584 78.2701 55.0992 78.1346C55.0399 77.995 54.9595 77.8744 54.858 77.7728C54.7564 77.6713 54.6358 77.5909 54.4961 77.5316C54.3607 77.4724 54.2147 77.4427 54.0581 77.4427H53.5376C53.3811 77.4427 53.233 77.4724 53.0933 77.5316C52.9579 77.5909 52.8394 77.6713 52.7378 77.7728C52.6363 77.8744 52.5559 77.995 52.4966 78.1346C52.4374 78.2701 52.4078 78.4161 52.4078 78.5726V79.5375H55.188V78.5726ZM61.0914 83.3334V78.5726C61.0914 78.4161 61.0617 78.2701 61.0025 78.1346C60.9432 77.995 60.8628 77.8744 60.7613 77.7728C60.6597 77.6713 60.5391 77.5909 60.3995 77.5316C60.264 77.4724 60.118 77.4427 59.9615 77.4427H59.441C59.2844 77.4427 59.1363 77.4724 58.9966 77.5316C58.8612 77.5909 58.7427 77.6713 58.6412 77.7728C58.5396 77.8744 58.4592 77.995 58.3999 78.1346C58.3407 78.2701 58.3111 78.4161 58.3111 78.5726V83.3334H57.5303V76.8334H57.7906L58.2159 77.4935C58.3936 77.2523 58.6158 77.0619 58.8824 76.9222C59.1532 76.7784 59.4473 76.7064 59.7647 76.7064H59.9615C60.2238 76.7064 60.4714 76.7572 60.7041 76.8588C60.9369 76.9561 61.14 77.0915 61.3135 77.265C61.487 77.4385 61.6224 77.6416 61.7198 77.8744C61.8213 78.1071 61.8721 78.3547 61.8721 78.6171V83.3334H61.0914ZM65.8013 83.3334C65.5643 83.3334 65.34 83.2889 65.1285 83.2001C64.9211 83.1112 64.7391 82.9885 64.5826 82.8319C64.4302 82.6753 64.3075 82.4934 64.2144 82.286C64.1255 82.0787 64.0811 81.8565 64.0811 81.6195V77.576H62.9131V76.8334H64.0811V75.2719L64.8619 75.1449V76.8334H66.5122V77.576H64.8619V81.6576C64.8619 81.7888 64.8851 81.9115 64.9317 82.0258C64.9825 82.1358 65.0502 82.2331 65.1348 82.3177C65.2194 82.4024 65.3189 82.4701 65.4331 82.5209C65.5474 82.5674 65.6701 82.5907 65.8013 82.5907H66.5122V83.3334H65.8013ZM72.4219 81.683C72.4219 81.9454 72.369 82.1866 72.2632 82.4066C72.1574 82.6224 72.0136 82.8086 71.8316 82.9652C71.6496 83.1218 71.438 83.2445 71.1968 83.3334C70.9598 83.418 70.7102 83.4603 70.4478 83.4603H69.9273C69.6649 83.4603 69.4131 83.4117 69.1719 83.3143C68.9349 83.2128 68.7255 83.0752 68.5435 82.9017C68.3658 82.7282 68.2219 82.5251 68.1119 82.2924C68.0061 82.0596 67.9532 81.8121 67.9532 81.5497V81.2894L68.7339 81.1625V81.5941C68.7339 81.7507 68.7657 81.8988 68.8291 82.0385C68.8969 82.1739 68.9857 82.2924 69.0957 82.3939C69.2058 82.4955 69.3327 82.5759 69.4766 82.6351C69.6205 82.6944 69.7707 82.724 69.9273 82.724H70.4478C70.6044 82.724 70.7546 82.7007 70.8985 82.6542C71.0424 82.6076 71.1693 82.542 71.2793 82.4574C71.3936 82.3685 71.4825 82.2627 71.5459 82.14C71.6136 82.0173 71.6475 81.8776 71.6475 81.7211C71.6475 81.4883 71.5967 81.2979 71.4952 81.1498C71.3936 81.0017 71.2582 80.8789 71.0889 80.7816C70.9239 80.6801 70.7334 80.5975 70.5176 80.5341C70.306 80.4663 70.0881 80.4008 69.8638 80.3373C69.6395 80.2696 69.4195 80.1934 69.2037 80.1088C68.9921 80.0241 68.8016 79.9141 68.6324 79.7787C68.4673 79.639 68.334 79.4655 68.2325 79.2582C68.1309 79.0508 68.0801 78.7927 68.0801 78.4838C68.0801 78.2214 68.1309 77.9823 68.2325 77.7665C68.334 77.5464 68.4716 77.3581 68.6451 77.2015C68.8186 77.045 69.0196 76.9244 69.2481 76.8397C69.4808 76.7509 69.7284 76.7064 69.9908 76.7064H70.4478C70.7102 76.7064 70.9577 76.7572 71.1905 76.8588C71.4232 76.9561 71.6263 77.0915 71.7998 77.265C71.9733 77.4385 72.1088 77.6416 72.2061 77.8744C72.3077 78.1071 72.3584 78.3547 72.3584 78.6171V78.6425L71.5777 78.7694V78.5726C71.5777 78.4161 71.5481 78.2701 71.4888 78.1346C71.4296 77.995 71.3492 77.8744 71.2476 77.7728C71.146 77.6713 71.0254 77.5909 70.8858 77.5316C70.7504 77.4724 70.6044 77.4427 70.4478 77.4427H69.9908C69.8342 77.4427 69.6861 77.466 69.5464 77.5126C69.411 77.5591 69.2925 77.6268 69.191 77.7157C69.0894 77.8003 69.009 77.904 68.9497 78.0267C68.8905 78.1495 68.8609 78.2891 68.8609 78.4457C68.8609 78.67 68.9117 78.854 69.0132 78.9979C69.1148 79.1376 69.2481 79.2561 69.4131 79.3534C69.5824 79.4507 69.7728 79.5332 69.9844 79.601C70.2002 79.6644 70.4182 79.7321 70.6382 79.8041C70.8625 79.8718 71.0804 79.9501 71.292 80.0389C71.5079 80.1278 71.6983 80.2421 71.8633 80.3817C72.0326 80.5214 72.168 80.697 72.2696 80.9086C72.3711 81.1159 72.4219 81.3741 72.4219 81.683Z" fill="white"/>
</g>
<rect x="12.5" y="2.5" width="65" height="88.3333" rx="7.5" stroke="#52796F" stroke-width="5"/>
<path d="M21.6666 31.5H68.3333" stroke="#52796F" stroke-width="5" stroke-linecap="round"/>
<path d="M21.6666 63H68.3333" stroke="#52796F" stroke-width="5" stroke-linecap="round"/>
<defs>
<filter id="filter0_d_34_105" x="13.8003" y="12.0641" width="62.6597" height="17.2295" filterUnits="userSpaceOnUse" color-interpolation-filters="sRGB">
<feFlood flood-opacity="0" result="BackgroundImageFix"/>
<feColorMatrix in="SourceAlpha" type="matrix" values="0 0 0 0 0 0 0 0 0 0 0 0 0 0 0 0 0 0 127 0" result="hardAlpha"/>
<feOffset dy="4"/>
<feGaussianBlur stdDeviation="2"/>
<feComposite in2="hardAlpha" operator="out"/>
<feColorMatrix type="matrix" values="0 0 0 0 0 0 0 0 0 0 0 0 0 0 0 0 0 0 0.25 0"/>
<feBlend mode="normal" in2="BackgroundImageFix" result="effect1_dropShadow_34_105"/>
<feBlend mode="normal" in="SourceGraphic" in2="effect1_dropShadow_34_105" result="shape"/>
</filter>
<filter id="filter1_d_34_105" x="4.50098" y="30.7308" width="81.252" height="45.7051" filterUnits="userSpaceOnUse" color-interpolation-filters="sRGB">
<feFlood flood-opacity="0" result="BackgroundImageFix"/>
<feColorMatrix in="SourceAlpha" type="matrix" values="0 0 0 0 0 0 0 0 0 0 0 0 0 0 0 0 0 0 127 0" result="hardAlpha"/>
<feOffset dy="4"/>
<feGaussianBlur stdDeviation="8.5"/>
<feComposite in2="hardAlpha" operator="out"/>
<feColorMatrix type="matrix" values="0 0 0 0 0 0 0 0 0 0 0 0 0 0 0 0 0 0 0.25 0"/>
<feBlend mode="normal" in2="BackgroundImageFix" result="effect1_dropShadow_34_105"/>
<feBlend mode="normal" in="SourceGraphic" in2="effect1_dropShadow_34_105" result="shape"/>
</filter>
<filter id="filter2_d_34_105" x="0.901855" y="61.2308" width="88.52" height="43.2295" filterUnits="userSpaceOnUse" color-interpolation-filters="sRGB">
<feFlood flood-opacity="0" result="BackgroundImageFix"/>
<feColorMatrix in="SourceAlpha" type="matrix" values="0 0 0 0 0 0 0 0 0 0 0 0 0 0 0 0 0 0 127 0" result="hardAlpha"/>
<feOffset dy="4"/>
<feGaussianBlur stdDeviation="8.5"/>
<feComposite in2="hardAlpha" operator="out"/>
<feColorMatrix type="matrix" values="0 0 0 0 0 0 0 0 0 0 0 0 0 0 0 0 0 0 0.25 0"/>
<feBlend mode="normal" in2="BackgroundImageFix" result="effect1_dropShadow_34_105"/>
<feBlend mode="normal" in="SourceGraphic" in2="effect1_dropShadow_34_105" result="shape"/>
</filter>
</defs>
</svg>
