<svg width="7" height="50" viewBox="0 0 7 50" fill="none" xmlns="http://www.w3.org/2000/svg">
<path d="M4 5L6.38675 0L0.613249 0L3 5H4ZM3 45L0.613249 50H6.38675L4 45H3ZM3 2.88462L3 4.80769H4V2.88462H3ZM3 6.73077V8.65385H4L4 6.73077H3ZM3 10.5769V12.5H4V10.5769H3ZM3 14.4231V16.3462H4V14.4231H3ZM3 18.2692L3 20.1923H4V18.2692H3ZM3 22.1154V24.0385H4V22.1154H3ZM3 25.9615V27.8846H4V25.9615H3ZM3 29.8077V31.7308H4V29.8077H3ZM3 33.6538V35.5769H4V33.6538H3ZM3 37.5V39.4231H4V37.5H3ZM3 41.3461V43.2692H4V41.3461H3ZM3 45.1923V47.1154H4V45.1923H3Z" fill="white"/>
</svg>
