<svg width="349" height="190" viewBox="0 0 349 190" fill="none" xmlns="http://www.w3.org/2000/svg">
<line y1="-0.5" x2="10" y2="-0.5" transform="matrix(-0.756459 0.654042 0.654042 0.756459 23.9533 31.6212)" stroke="#CAD2C5" stroke-opacity="0.75"/>
<line y1="-0.5" x2="9" y2="-0.5" transform="matrix(0.654042 0.756459 0.756459 -0.654042 27.8146 46.7899)" stroke="#CAD2C5" stroke-opacity="0.75"/>
<line y1="-0.5" x2="10" y2="-0.5" transform="matrix(0.654042 0.756459 0.756459 -0.654042 30.9429 42.7632)" stroke="#CAD2C5" stroke-opacity="0.75"/>
<line y1="-0.5" x2="2" y2="-0.5" transform="matrix(0.654042 0.756459 0.756459 -0.654042 20.9274 34.2374)" stroke="#CAD2C5" stroke-opacity="0.75"/>
<line y1="-0.5" x2="2" y2="-0.5" transform="matrix(0.654042 0.756459 0.756459 -0.654042 20.171 34.8914)" stroke="#CAD2C5" stroke-opacity="0.75"/>
<rect width="4" height="24" transform="matrix(-0.756459 0.654042 0.654042 0.756459 22.992 35.0963)" fill="#CAD2C5"/>
<rect width="34" height="7" transform="matrix(-0.756459 0.654042 0.654042 0.756459 37.6091 29.0679)" fill="#CAD2C5"/>
<rect width="8" height="3" transform="matrix(-0.756459 0.654042 0.654042 0.756459 40.2019 51.9432)" fill="#CAD2C5"/>
<rect width="1" height="1" transform="matrix(-0.756459 0.654042 0.654042 0.756459 26.3646 37.468)" fill="#CAD2C5"/>
<rect width="1" height="1" transform="matrix(-0.756459 0.654042 0.654042 0.756459 22.5823 40.7382)" fill="#CAD2C5"/>
<path d="M241.813 76.9432C228.951 82.1172 214.031 84.4182 200.197 83.1421C193.55 82.5289 186.479 81.5126 180.562 78.245C176.923 76.2359 171.478 72.2882 170.663 67.7821C169.511 61.4075 175.729 57.0603 181.366 55.9405C187.261 54.7694 193.563 58.9445 195.104 64.8223C196.625 70.6253 193.677 77.2464 189.023 80.7411C185.784 83.1726 181.662 84.4805 177.882 85.811C172.578 87.6783 167.011 89.0698 161.529 90.2999C155.313 91.695 149.341 92.8552 142.949 93.025C136.088 93.2073 129.174 92.4768 122.321 92.1769C115.184 91.8645 108.173 90.9481 101.11 89.9083C92.3957 88.6257 83.8814 87.3187 75.5557 84.3198C65.9586 80.8631 58.5278 74.2225 50.4022 68.3651C48.909 67.2887 47.3962 66.4442 45.8476 65.469C44.7208 64.7593 43.9417 63.7218 42.8153 62.9834C41.2935 61.9858 40.485 61.443 42.5806 60.8693" stroke="#CAD2C5" stroke-opacity="0.75" stroke-width="2" stroke-linecap="round" stroke-dasharray="4 6"/>
<path d="M245.939 74.6237C249.782 72.8405 253.631 71.2059 257.72 70.0532C268.178 67.1046 279.363 65.434 290.201 66.8694C293.2 67.2666 296.16 67.9881 299.131 68.5445C302.852 69.2414 306.603 69.8267 310.28 70.741C315.388 72.0114 320.191 74.0618 325.1 75.9105C332.867 78.8347 340.861 81.9762 347.62 86.8041" stroke="#A3ADA6" stroke-width="2" stroke-linecap="round" stroke-dasharray="6 6"/>
</svg>
