<svg width="82" height="105" viewBox="0 0 82 105" fill="none" xmlns="http://www.w3.org/2000/svg">
<g filter="url(#filter0_d_34_106)">
<path d="M13.8003 22.3333V13.2308H14.6192V22.3333H13.8003ZM20.0083 22.3333V17.5726C20.0083 17.416 19.9787 17.27 19.9195 17.1346C19.8602 16.9949 19.7798 16.8743 19.6783 16.7728C19.5767 16.6712 19.4561 16.5908 19.3164 16.5316C19.181 16.4723 19.035 16.4427 18.8785 16.4427H18.358C18.2014 16.4427 18.0533 16.4723 17.9136 16.5316C17.7782 16.5908 17.6597 16.6712 17.5581 16.7728C17.4566 16.8743 17.3762 16.9949 17.3169 17.1346C17.2577 17.27 17.2281 17.416 17.2281 17.5726V22.3333H16.4473V15.8333H16.7076L17.1329 16.4935C17.3106 16.2523 17.5328 16.0618 17.7994 15.9222C18.0702 15.7783 18.3643 15.7064 18.6817 15.7064H18.8785C19.1408 15.7064 19.3884 15.7571 19.6211 15.8587C19.8539 15.956 20.057 16.0915 20.2305 16.265C20.404 16.4385 20.5394 16.6416 20.6368 16.8743C20.7383 17.1071 20.7891 17.3546 20.7891 17.617V22.3333H20.0083ZM24.585 13.9734C24.4538 13.9734 24.3311 13.9988 24.2168 14.0496C24.1068 14.0962 24.0095 14.1618 23.9248 14.2464C23.8402 14.331 23.7725 14.4305 23.7217 14.5447C23.6752 14.659 23.6519 14.7817 23.6519 14.9129V15.8333H25.169V16.576H23.6519V22.3333H22.8711V16.576H21.6968V15.8333H22.8711V14.951C22.8711 14.714 22.9156 14.4918 23.0044 14.2845C23.0933 14.0729 23.216 13.8888 23.3726 13.7322C23.5292 13.5757 23.7111 13.4529 23.9185 13.3641C24.1259 13.2752 24.348 13.2308 24.585 13.2308H25.3023V13.9734H24.585ZM30.4248 20.5496C30.4248 20.812 30.3741 21.0595 30.2725 21.2923C30.1752 21.525 30.0398 21.7282 29.8663 21.9017C29.6927 22.0752 29.4896 22.2127 29.2569 22.3143C29.0241 22.4116 28.7766 22.4603 28.5142 22.4603H27.9937C27.7313 22.4603 27.4838 22.4116 27.251 22.3143C27.0183 22.2127 26.8151 22.0752 26.6416 21.9017C26.4681 21.7282 26.3306 21.525 26.229 21.2923C26.1317 21.0595 26.083 20.812 26.083 20.5496V17.617C26.083 17.3546 26.1317 17.1071 26.229 16.8743C26.3306 16.6416 26.4681 16.4385 26.6416 16.265C26.8151 16.0915 27.0183 15.956 27.251 15.8587C27.4838 15.7571 27.7313 15.7064 27.9937 15.7064H28.5142C28.7766 15.7064 29.0241 15.7571 29.2569 15.8587C29.4896 15.956 29.6927 16.0915 29.8663 16.265C30.0398 16.4385 30.1752 16.6416 30.2725 16.8743C30.3741 17.1071 30.4248 17.3546 30.4248 17.617V20.5496ZM29.6441 17.5726C29.6441 17.416 29.6145 17.27 29.5552 17.1346C29.496 16.9949 29.4156 16.8743 29.314 16.7728C29.2124 16.6712 29.0918 16.5908 28.9522 16.5316C28.8168 16.4723 28.6708 16.4427 28.5142 16.4427H27.9937C27.8371 16.4427 27.689 16.4723 27.5494 16.5316C27.4139 16.5908 27.2955 16.6712 27.1939 16.7728C27.0923 16.8743 27.0119 16.9949 26.9527 17.1346C26.8934 17.27 26.8638 17.416 26.8638 17.5726V20.5941C26.8638 20.7506 26.8934 20.8987 26.9527 21.0384C27.0119 21.1738 27.0923 21.2923 27.1939 21.3939C27.2955 21.4954 27.4139 21.5758 27.5494 21.6351C27.689 21.6943 27.8371 21.7239 27.9937 21.7239H28.5142C28.6708 21.7239 28.8168 21.6943 28.9522 21.6351C29.0918 21.5758 29.2124 21.4954 29.314 21.3939C29.4156 21.2923 29.496 21.1738 29.5552 21.0384C29.6145 20.8987 29.6441 20.7506 29.6441 20.5941V17.5726ZM33.897 16.576C33.7404 16.576 33.5923 16.6056 33.4527 16.6649C33.3173 16.7241 33.1988 16.8045 33.0972 16.9061C32.9956 17.0076 32.9152 17.1282 32.856 17.2679C32.7968 17.4033 32.7671 17.5493 32.7671 17.7059V22.3333H31.9864V15.8333H32.2466L32.6719 16.4935C32.8496 16.2523 33.0718 16.0618 33.3384 15.9222C33.6093 15.7783 33.9034 15.7064 34.2207 15.7064H34.6778V16.576H33.897ZM42.5806 22.3333V17.5726C42.5806 17.416 42.551 17.27 42.4917 17.1346C42.4325 16.9949 42.3521 16.8743 42.2505 16.7728C42.149 16.6712 42.0284 16.5908 41.8887 16.5316C41.7533 16.4723 41.6073 16.4427 41.4507 16.4427H41.0635C40.9069 16.4427 40.7588 16.4723 40.6192 16.5316C40.4838 16.5908 40.3632 16.6712 40.2574 16.7728C40.1558 16.8743 40.0754 16.9949 40.0162 17.1346C39.9569 17.27 39.9273 17.416 39.9273 17.5726V22.3333H39.1529V17.5726C39.1529 17.416 39.1232 17.27 39.064 17.1346C39.0048 16.9949 38.9222 16.8743 38.8164 16.7728C38.7149 16.6712 38.5943 16.5908 38.4546 16.5316C38.3192 16.4723 38.1732 16.4427 38.0166 16.4427H37.6294C37.4729 16.4427 37.3247 16.4723 37.1851 16.5316C37.0497 16.5908 36.9312 16.6712 36.8296 16.7728C36.7281 16.8743 36.6477 16.9949 36.5884 17.1346C36.5292 17.27 36.4996 17.416 36.4996 17.5726V22.3333H35.7188V15.8333H35.979L36.4043 16.4935C36.5821 16.2523 36.8042 16.0618 37.0708 15.9222C37.3417 15.7783 37.6358 15.7064 37.9532 15.7064H38.0166C38.3848 15.7064 38.717 15.7973 39.0132 15.9793C39.3094 16.1613 39.538 16.4025 39.6988 16.7029C39.7792 16.5548 39.8786 16.4194 39.9971 16.2967C40.1156 16.174 40.2468 16.0703 40.3907 15.9857C40.5345 15.8968 40.6911 15.8291 40.8604 15.7825C41.0297 15.7318 41.2053 15.7064 41.3872 15.7064H41.4507C41.7131 15.7064 41.9607 15.7571 42.1934 15.8587C42.4261 15.956 42.6293 16.0915 42.8028 16.265C42.9763 16.4385 43.1117 16.6416 43.209 16.8743C43.3106 17.1071 43.3614 17.3546 43.3614 17.617V22.3333H42.5806ZM49.0044 22.3333L48.5728 21.6859C48.3951 21.9186 48.1729 22.1069 47.9063 22.2508C47.6397 22.3904 47.3477 22.4603 47.0303 22.4603H46.8335C46.5712 22.4603 46.3236 22.4116 46.0909 22.3143C45.8581 22.2127 45.655 22.0752 45.4815 21.9017C45.308 21.7282 45.1704 21.525 45.0689 21.2923C44.9716 21.0595 44.9229 20.812 44.9229 20.5496V20.4861C44.9229 20.2238 44.9716 19.9762 45.0689 19.7435C45.1704 19.5107 45.308 19.3076 45.4815 19.1341C45.655 18.9606 45.8581 18.8252 46.0909 18.7278C46.3236 18.6263 46.5712 18.5755 46.8335 18.5755H48.4839V17.5726C48.4839 17.416 48.4543 17.27 48.3951 17.1346C48.3358 16.9949 48.2554 16.8743 48.1538 16.7728C48.0523 16.6712 47.9317 16.5908 47.792 16.5316C47.6566 16.4723 47.5106 16.4427 47.354 16.4427H46.897C46.7404 16.4427 46.5923 16.4723 46.4527 16.5316C46.3173 16.5908 46.1988 16.6712 46.0972 16.7728C45.9956 16.8743 45.9152 16.9949 45.856 17.1346C45.7968 17.27 45.7671 17.416 45.7671 17.5726V17.8074L44.9864 17.6805V17.617C44.9864 17.3546 45.035 17.1071 45.1324 16.8743C45.2339 16.6416 45.3715 16.4385 45.545 16.265C45.7185 16.0915 45.9216 15.956 46.1543 15.8587C46.3871 15.7571 46.6346 15.7064 46.897 15.7064H47.354C47.6164 15.7064 47.864 15.7571 48.0967 15.8587C48.3295 15.956 48.5326 16.0915 48.7061 16.265C48.8796 16.4385 49.015 16.6416 49.1123 16.8743C49.2139 17.1071 49.2647 17.3546 49.2647 17.617V22.3333H49.0044ZM48.4839 19.1849H46.8335C46.677 19.1849 46.5288 19.2145 46.3892 19.2737C46.2538 19.333 46.1353 19.4155 46.0337 19.5213C45.9322 19.6229 45.8518 19.7435 45.7925 19.8831C45.7333 20.0185 45.7037 20.1645 45.7037 20.3211V20.5941C45.7037 20.7506 45.7333 20.8987 45.7925 21.0384C45.8518 21.1738 45.9322 21.2923 46.0337 21.3939C46.1353 21.4954 46.2538 21.5758 46.3892 21.6351C46.5288 21.6943 46.677 21.7239 46.8335 21.7239H47.354C47.5106 21.7239 47.6566 21.6943 47.792 21.6351C47.9317 21.5758 48.0523 21.4954 48.1538 21.3939C48.2554 21.2923 48.3358 21.1738 48.3951 21.0384C48.4543 20.8987 48.4839 20.7506 48.4839 20.5941V19.1849ZM53.1939 22.3333C52.9569 22.3333 52.7326 22.2889 52.521 22.2C52.3137 22.1111 52.1317 21.9884 51.9751 21.8318C51.8228 21.6753 51.7001 21.4933 51.607 21.2859C51.5181 21.0786 51.4737 20.8564 51.4737 20.6194V16.576H50.3057V15.8333H51.4737V14.2718L52.2544 14.1448V15.8333H53.9048V16.576H52.2544V20.6575C52.2544 20.7887 52.2777 20.9114 52.3243 21.0257C52.375 21.1357 52.4427 21.2331 52.5274 21.3177C52.612 21.4023 52.7115 21.47 52.8257 21.5208C52.94 21.5674 53.0627 21.5906 53.1939 21.5906H53.9048V22.3333H53.1939ZM55.5425 14.2718V13.2308H56.4502V14.2718H55.5425ZM55.606 22.3333V15.8333H56.3868V22.3333H55.606ZM62.5567 20.5496C62.5567 20.812 62.5059 21.0595 62.4043 21.2923C62.307 21.525 62.1716 21.7282 61.9981 21.9017C61.8246 22.0752 61.6215 22.2127 61.3887 22.3143C61.156 22.4116 60.9084 22.4603 60.646 22.4603H60.1255C59.8632 22.4603 59.6156 22.4116 59.3829 22.3143C59.1501 22.2127 58.947 22.0752 58.7735 21.9017C58.6 21.7282 58.4624 21.525 58.3609 21.2923C58.2635 21.0595 58.2149 20.812 58.2149 20.5496V17.617C58.2149 17.3546 58.2635 17.1071 58.3609 16.8743C58.4624 16.6416 58.6 16.4385 58.7735 16.265C58.947 16.0915 59.1501 15.956 59.3829 15.8587C59.6156 15.7571 59.8632 15.7064 60.1255 15.7064H60.646C60.9084 15.7064 61.156 15.7571 61.3887 15.8587C61.6215 15.956 61.8246 16.0915 61.9981 16.265C62.1716 16.4385 62.307 16.6416 62.4043 16.8743C62.5059 17.1071 62.5567 17.3546 62.5567 17.617V20.5496ZM61.7759 17.5726C61.7759 17.416 61.7463 17.27 61.687 17.1346C61.6278 16.9949 61.5474 16.8743 61.4458 16.7728C61.3443 16.6712 61.2237 16.5908 61.084 16.5316C60.9486 16.4723 60.8026 16.4427 60.646 16.4427H60.1255C59.969 16.4427 59.8208 16.4723 59.6812 16.5316C59.5458 16.5908 59.4273 16.6712 59.3257 16.7728C59.2242 16.8743 59.1438 16.9949 59.0845 17.1346C59.0253 17.27 58.9956 17.416 58.9956 17.5726V20.5941C58.9956 20.7506 59.0253 20.8987 59.0845 21.0384C59.1438 21.1738 59.2242 21.2923 59.3257 21.3939C59.4273 21.4954 59.5458 21.5758 59.6812 21.6351C59.8208 21.6943 59.969 21.7239 60.1255 21.7239H60.646C60.8026 21.7239 60.9486 21.6943 61.084 21.6351C61.2237 21.5758 61.3443 21.4954 61.4458 21.3939C61.5474 21.2923 61.6278 21.1738 61.687 21.0384C61.7463 20.8987 61.7759 20.7506 61.7759 20.5941V17.5726ZM67.6792 22.3333V17.5726C67.6792 17.416 67.6496 17.27 67.5904 17.1346C67.5311 16.9949 67.4507 16.8743 67.3492 16.7728C67.2476 16.6712 67.127 16.5908 66.9873 16.5316C66.8519 16.4723 66.7059 16.4427 66.5494 16.4427H66.0288C65.8723 16.4427 65.7242 16.4723 65.5845 16.5316C65.4491 16.5908 65.3306 16.6712 65.229 16.7728C65.1275 16.8743 65.0471 16.9949 64.9878 17.1346C64.9286 17.27 64.899 17.416 64.899 17.5726V22.3333H64.1182V15.8333H64.3785L64.8037 16.4935C64.9815 16.2523 65.2037 16.0618 65.4703 15.9222C65.7411 15.7783 66.0352 15.7064 66.3526 15.7064H66.5494C66.8117 15.7064 67.0593 15.7571 67.292 15.8587C67.5248 15.956 67.7279 16.0915 67.9014 16.265C68.0749 16.4385 68.2103 16.6416 68.3077 16.8743C68.4092 17.1071 68.46 17.3546 68.46 17.617V22.3333H67.6792Z" fill="white"/>
</g>
<g filter="url(#filter1_d_34_106)">
<path d="M21.9126 52.8333L19.4434 48.9485H18.3199V52.8333H17.501V43.7308H20.3892C20.6981 43.7308 20.988 43.79 21.2588 43.9085C21.5297 44.0228 21.7666 44.1815 21.9698 44.3846C22.1729 44.5877 22.3316 44.8268 22.4458 45.1019C22.5643 45.3727 22.6236 45.6626 22.6236 45.9715V46.7078C22.6236 47.0167 22.5643 47.3087 22.4458 47.5838C22.3316 47.8546 22.1729 48.0916 21.9698 48.2947C21.7666 48.4979 21.5297 48.6587 21.2588 48.7772C20.988 48.8914 20.6981 48.9485 20.3892 48.9485L22.8584 52.8333H21.9126ZM21.8047 45.9715C21.8047 45.7684 21.7666 45.5801 21.6905 45.4066C21.6143 45.2288 21.5106 45.0744 21.3794 44.9432C21.2482 44.8078 21.0938 44.702 20.9161 44.6258C20.7426 44.5496 20.5542 44.5115 20.3511 44.5115H18.3199V48.1678H20.3511C20.5542 48.1678 20.7426 48.1297 20.9161 48.0535C21.0938 47.9774 21.2482 47.8737 21.3794 47.7425C21.5106 47.6071 21.6143 47.4526 21.6905 47.2791C21.7666 47.1014 21.8047 46.9109 21.8047 46.7078V45.9715ZM28.5079 51.0496C28.5079 51.312 28.4571 51.5595 28.3555 51.7923C28.2582 52.025 28.1228 52.2282 27.9493 52.4017C27.7758 52.5752 27.5726 52.7127 27.3399 52.8143C27.1071 52.9116 26.8596 52.9603 26.5972 52.9603H26.0767C25.8143 52.9603 25.5668 52.9116 25.334 52.8143C25.1013 52.7127 24.8982 52.5752 24.7246 52.4017C24.5511 52.2282 24.4136 52.025 24.3121 51.7923C24.2147 51.5595 24.1661 51.312 24.1661 51.0496V48.117C24.1661 47.8546 24.2147 47.6071 24.3121 47.3743C24.4136 47.1416 24.5511 46.9385 24.7246 46.765C24.8982 46.5915 25.1013 46.456 25.334 46.3587C25.5668 46.2571 25.8143 46.2064 26.0767 46.2064H26.5972C26.8596 46.2064 27.1071 46.2571 27.3399 46.3587C27.5726 46.456 27.7758 46.5915 27.9493 46.765C28.1228 46.9385 28.2582 47.1416 28.3555 47.3743C28.4571 47.6071 28.5079 47.8546 28.5079 48.117V49.6468H24.9468V51.0941C24.9468 51.2506 24.9764 51.3987 25.0357 51.5384C25.0949 51.6738 25.1753 51.7923 25.2769 51.8939C25.3785 51.9954 25.4969 52.0758 25.6324 52.1351C25.772 52.1943 25.9201 52.2239 26.0767 52.2239H26.5972C26.7538 52.2239 26.8998 52.1943 27.0352 52.1351C27.1748 52.0758 27.2955 51.9954 27.397 51.8939C27.4986 51.7923 27.579 51.6738 27.6382 51.5384C27.6975 51.3987 27.7271 51.2506 27.7271 51.0941V50.6624L28.5079 50.7894V51.0496ZM27.7271 48.0726C27.7271 47.916 27.6975 47.77 27.6382 47.6346C27.579 47.4949 27.4986 47.3743 27.397 47.2728C27.2955 47.1712 27.1748 47.0908 27.0352 47.0316C26.8998 46.9723 26.7538 46.9427 26.5972 46.9427H26.0767C25.9201 46.9427 25.772 46.9723 25.6324 47.0316C25.4969 47.0908 25.3785 47.1712 25.2769 47.2728C25.1753 47.3743 25.0949 47.4949 25.0357 47.6346C24.9764 47.77 24.9468 47.916 24.9468 48.0726V49.0374H27.7271V48.0726ZM34.4746 53.6522C34.4746 53.9145 34.4239 54.1557 34.3223 54.3758C34.225 54.5958 34.0896 54.7842 33.9161 54.9407C33.7426 55.0973 33.5394 55.2179 33.3067 55.3026C33.0739 55.3914 32.8264 55.4359 32.564 55.4359H32.2403C31.9779 55.4359 31.7303 55.3914 31.4976 55.3026C31.2649 55.2179 31.0617 55.0973 30.8882 54.9407C30.7147 54.7842 30.5772 54.5958 30.4756 54.3758C30.3783 54.1557 30.3296 53.9145 30.3296 53.6522V53.6268C30.3296 53.3729 30.3762 53.1401 30.4693 52.9285C30.5624 52.7169 30.6893 52.5329 30.8501 52.3763C30.647 52.2536 30.4841 52.0885 30.3614 51.8812C30.2429 51.6696 30.1836 51.4368 30.1836 51.1829C30.1836 50.9544 30.2323 50.7428 30.3296 50.5482C30.427 50.3493 30.5603 50.1885 30.7295 50.0657C30.5264 49.888 30.3656 49.6743 30.2471 49.4246C30.1286 49.1749 30.0694 48.902 30.0694 48.6058V48.117C30.0694 47.8546 30.118 47.6071 30.2154 47.3743C30.3169 47.1416 30.4545 46.9385 30.628 46.765C30.8015 46.5915 31.0046 46.456 31.2373 46.3587C31.4701 46.2571 31.7177 46.2064 31.98 46.2064H32.3038C32.6211 46.2064 32.9131 46.2783 33.1797 46.4222C33.4506 46.5618 33.6748 46.7523 33.8526 46.9935L34.2779 46.3333H34.5381V48.6058C34.5381 48.8681 34.4873 49.1157 34.3858 49.3484C34.2885 49.5812 34.153 49.7843 33.9795 49.9578C33.806 50.1313 33.6029 50.2689 33.3702 50.3704C33.1374 50.4678 32.8899 50.5164 32.6275 50.5164H31.4976C31.4087 50.5164 31.3241 50.5355 31.2437 50.5735C31.1633 50.6074 31.0913 50.654 31.0279 50.7132C30.9686 50.7724 30.9221 50.8444 30.8882 50.929C30.8544 51.0094 30.8374 51.0941 30.8374 51.1829C30.8374 51.2718 30.8544 51.3564 30.8882 51.4368C30.9221 51.5172 30.9686 51.5892 31.0279 51.6526C31.0913 51.7119 31.1633 51.7584 31.2437 51.7923C31.3241 51.8262 31.4087 51.8431 31.4976 51.8431H32.564C32.8264 51.8431 33.0739 51.8875 33.3067 51.9764C33.5394 52.061 33.7426 52.1816 33.9161 52.3382C34.0896 52.4948 34.225 52.6831 34.3223 52.9031C34.4239 53.1232 34.4746 53.3644 34.4746 53.6268V53.6522ZM33.7637 48.0726C33.7637 47.916 33.7341 47.77 33.6748 47.6346C33.6156 47.4949 33.5331 47.3743 33.4273 47.2728C33.3257 47.1712 33.2051 47.0908 33.0655 47.0316C32.9301 46.9723 32.7841 46.9427 32.6275 46.9427H31.98C31.8234 46.9427 31.6753 46.9723 31.5357 47.0316C31.4003 47.0908 31.2818 47.1712 31.1802 47.2728C31.0787 47.3743 30.9982 47.4949 30.939 47.6346C30.8798 47.77 30.8501 47.916 30.8501 48.0726V48.6502C30.8501 48.8068 30.8798 48.9549 30.939 49.0945C30.9982 49.23 31.0787 49.3484 31.1802 49.45C31.2818 49.5516 31.4003 49.632 31.5357 49.6912C31.6753 49.7505 31.8234 49.7801 31.98 49.7801H32.6275C32.7841 49.7801 32.9301 49.7505 33.0655 49.6912C33.2051 49.632 33.3257 49.5516 33.4273 49.45C33.5331 49.3484 33.6156 49.23 33.6748 49.0945C33.7341 48.9549 33.7637 48.8068 33.7637 48.6502V48.0726ZM33.732 53.5887C33.732 53.4321 33.7024 53.2903 33.6431 53.1634C33.5839 53.0407 33.5035 52.937 33.4019 52.8524C33.3003 52.7677 33.1797 52.7021 33.0401 52.6556C32.9047 52.609 32.7587 52.5858 32.6021 52.5858H32.2022C32.0456 52.5858 31.8975 52.609 31.7579 52.6556C31.6224 52.7021 31.5039 52.7677 31.4024 52.8524C31.3008 52.937 31.2204 53.0407 31.1612 53.1634C31.1019 53.2903 31.0723 53.4321 31.0723 53.5887V53.6902C31.0723 53.8468 31.1019 53.9865 31.1612 54.1092C31.2204 54.2319 31.3008 54.3356 31.4024 54.4202C31.5039 54.5091 31.6224 54.5768 31.7579 54.6234C31.8975 54.6699 32.0456 54.6932 32.2022 54.6932H32.6021C32.7587 54.6932 32.9047 54.6699 33.0401 54.6234C33.1797 54.5768 33.3003 54.5091 33.4019 54.4202C33.5035 54.3356 33.5839 54.2319 33.6431 54.1092C33.7024 53.9865 33.732 53.8468 33.732 53.6902V53.5887ZM40.0542 52.8333L39.6226 52.1859C39.4449 52.4186 39.2227 52.6069 38.9561 52.7508C38.6895 52.8904 38.3975 52.9603 38.0801 52.9603H37.8833C37.621 52.9603 37.3734 52.9116 37.1407 52.8143C36.9079 52.7127 36.7048 52.5752 36.5313 52.4017C36.3578 52.2282 36.2203 52.025 36.1187 51.7923C36.0214 51.5595 35.9727 51.312 35.9727 51.0496V50.9861C35.9727 50.7238 36.0214 50.4762 36.1187 50.2435C36.2203 50.0107 36.3578 49.8076 36.5313 49.6341C36.7048 49.4606 36.9079 49.3252 37.1407 49.2278C37.3734 49.1263 37.621 49.0755 37.8833 49.0755H39.5337V48.0726C39.5337 47.916 39.5041 47.77 39.4449 47.6346C39.3856 47.4949 39.3052 47.3743 39.2037 47.2728C39.1021 47.1712 38.9815 47.0908 38.8418 47.0316C38.7064 46.9723 38.5604 46.9427 38.4038 46.9427H37.9468C37.7902 46.9427 37.6421 46.9723 37.5025 47.0316C37.3671 47.0908 37.2486 47.1712 37.147 47.2728C37.0455 47.3743 36.965 47.4949 36.9058 47.6346C36.8466 47.77 36.8169 47.916 36.8169 48.0726V48.3074L36.0362 48.1805V48.117C36.0362 47.8546 36.0848 47.6071 36.1822 47.3743C36.2837 47.1416 36.4213 46.9385 36.5948 46.765C36.7683 46.5915 36.9714 46.456 37.2041 46.3587C37.4369 46.2571 37.6844 46.2064 37.9468 46.2064H38.4038C38.6662 46.2064 38.9138 46.2571 39.1465 46.3587C39.3793 46.456 39.5824 46.5915 39.7559 46.765C39.9294 46.9385 40.0648 47.1416 40.1621 47.3743C40.2637 47.6071 40.3145 47.8546 40.3145 48.117V52.8333H40.0542ZM39.5337 49.6849H37.8833C37.7268 49.6849 37.5787 49.7145 37.439 49.7737C37.3036 49.833 37.1851 49.9155 37.0835 50.0213C36.982 50.1229 36.9016 50.2435 36.8423 50.3831C36.7831 50.5185 36.7535 50.6645 36.7535 50.8211V51.0941C36.7535 51.2506 36.7831 51.3987 36.8423 51.5384C36.9016 51.6738 36.982 51.7923 37.0835 51.8939C37.1851 51.9954 37.3036 52.0758 37.439 52.1351C37.5787 52.1943 37.7268 52.2239 37.8833 52.2239H38.4038C38.5604 52.2239 38.7064 52.1943 38.8418 52.1351C38.9815 52.0758 39.1021 51.9954 39.2037 51.8939C39.3052 51.7923 39.3856 51.6738 39.4449 51.5384C39.5041 51.3987 39.5337 51.2506 39.5337 51.0941V49.6849ZM43.7867 47.076C43.6301 47.076 43.482 47.1056 43.3423 47.1649C43.2069 47.2241 43.0884 47.3045 42.9869 47.4061C42.8853 47.5076 42.8049 47.6282 42.7456 47.7679C42.6864 47.9033 42.6568 48.0493 42.6568 48.2059V52.8333H41.876V46.3333H42.1363L42.5616 46.9935C42.7393 46.7523 42.9615 46.5618 43.2281 46.4222C43.4989 46.2783 43.793 46.2064 44.1104 46.2064H44.5674V47.076H43.7867ZM49.69 52.8333L49.2583 52.1732C49.0806 52.4144 48.8584 52.6069 48.5918 52.7508C48.3252 52.8904 48.0332 52.9603 47.7159 52.9603H47.5191C47.2567 52.9603 47.0092 52.9116 46.7764 52.8143C46.5437 52.7127 46.3405 52.5752 46.167 52.4017C45.9935 52.2282 45.856 52.025 45.7544 51.7923C45.6571 51.5595 45.6084 51.312 45.6084 51.0496V48.117C45.6084 47.8546 45.6571 47.6071 45.7544 47.3743C45.856 47.1416 45.9935 46.9385 46.167 46.765C46.3405 46.5915 46.5437 46.456 46.7764 46.3587C47.0092 46.2571 47.2567 46.2064 47.5191 46.2064H47.7159C48.0079 46.2064 48.2787 46.2656 48.5284 46.3841C48.778 46.5026 48.9917 46.6676 49.1695 46.8792V43.7308H49.9502V52.8333H49.69ZM49.1695 48.0726C49.1695 47.916 49.1398 47.77 49.0806 47.6346C49.0214 47.4949 48.941 47.3743 48.8394 47.2728C48.7378 47.1712 48.6172 47.0908 48.4776 47.0316C48.3422 46.9723 48.1962 46.9427 48.0396 46.9427H47.5191C47.3625 46.9427 47.2144 46.9723 47.0747 47.0316C46.9393 47.0908 46.8208 47.1712 46.7193 47.2728C46.6177 47.3743 46.5373 47.4949 46.4781 47.6346C46.4188 47.77 46.3892 47.916 46.3892 48.0726V51.0941C46.3892 51.2506 46.4188 51.3987 46.4781 51.5384C46.5373 51.6738 46.6177 51.7923 46.7193 51.8939C46.8208 51.9954 46.9393 52.0758 47.0747 52.1351C47.2144 52.1943 47.3625 52.2239 47.5191 52.2239H48.0396C48.1962 52.2239 48.3422 52.1943 48.4776 52.1351C48.6172 52.0758 48.7378 51.9954 48.8394 51.8939C48.941 51.7923 49.0214 51.6738 49.0806 51.5384C49.1398 51.3987 49.1695 51.2506 49.1695 51.0941V48.0726ZM51.7085 44.7718V43.7308H52.6162V44.7718H51.7085ZM51.772 52.8333V46.3333H52.5528V52.8333H51.772ZM57.9419 52.8333V48.0726C57.9419 47.916 57.9123 47.77 57.8531 47.6346C57.7938 47.4949 57.7134 47.3743 57.6119 47.2728C57.5103 47.1712 57.3897 47.0908 57.25 47.0316C57.1146 46.9723 56.9686 46.9427 56.812 46.9427H56.2915C56.135 46.9427 55.9869 46.9723 55.8472 47.0316C55.7118 47.0908 55.5933 47.1712 55.4917 47.2728C55.3902 47.3743 55.3098 47.4949 55.2505 47.6346C55.1913 47.77 55.1617 47.916 55.1617 48.0726V52.8333H54.3809V46.3333H54.6412L55.0664 46.9935C55.2442 46.7523 55.4663 46.5618 55.7329 46.4222C56.0038 46.2783 56.2979 46.2064 56.6153 46.2064H56.812C57.0744 46.2064 57.322 46.2571 57.5547 46.3587C57.7875 46.456 57.9906 46.5915 58.1641 46.765C58.3376 46.9385 58.473 47.1416 58.5704 47.3743C58.6719 47.6071 58.7227 47.8546 58.7227 48.117V52.8333H57.9419ZM64.6895 53.6522C64.6895 53.9145 64.6387 54.1557 64.5371 54.3758C64.4398 54.5958 64.3044 54.7842 64.1309 54.9407C63.9574 55.0973 63.7543 55.2179 63.5215 55.3026C63.2888 55.3914 63.0412 55.4359 62.7788 55.4359H62.4551C62.1927 55.4359 61.9452 55.3914 61.7124 55.3026C61.4797 55.2179 61.2766 55.0973 61.1031 54.9407C60.9296 54.7842 60.792 54.5958 60.6905 54.3758C60.5931 54.1557 60.5445 53.9145 60.5445 53.6522V53.6268C60.5445 53.3729 60.591 53.1401 60.6841 52.9285C60.7772 52.7169 60.9042 52.5329 61.065 52.3763C60.8619 52.2536 60.6989 52.0885 60.5762 51.8812C60.4577 51.6696 60.3985 51.4368 60.3985 51.1829C60.3985 50.9544 60.4471 50.7428 60.5445 50.5482C60.6418 50.3493 60.7751 50.1885 60.9444 50.0657C60.7412 49.888 60.5804 49.6743 60.462 49.4246C60.3435 49.1749 60.2842 48.902 60.2842 48.6058V48.117C60.2842 47.8546 60.3329 47.6071 60.4302 47.3743C60.5318 47.1416 60.6693 46.9385 60.8428 46.765C61.0163 46.5915 61.2194 46.456 61.4522 46.3587C61.6849 46.2571 61.9325 46.2064 62.1949 46.2064H62.5186C62.836 46.2064 63.128 46.2783 63.3946 46.4222C63.6654 46.5618 63.8897 46.7523 64.0674 46.9935L64.4927 46.3333H64.753V48.6058C64.753 48.8681 64.7022 49.1157 64.6006 49.3484C64.5033 49.5812 64.3679 49.7843 64.1944 49.9578C64.0209 50.1313 63.8177 50.2689 63.585 50.3704C63.3523 50.4678 63.1047 50.5164 62.8423 50.5164H61.7124C61.6236 50.5164 61.5389 50.5355 61.4585 50.5735C61.3781 50.6074 61.3062 50.654 61.2427 50.7132C61.1835 50.7724 61.1369 50.8444 61.1031 50.929C61.0692 51.0094 61.0523 51.0941 61.0523 51.1829C61.0523 51.2718 61.0692 51.3564 61.1031 51.4368C61.1369 51.5172 61.1835 51.5892 61.2427 51.6526C61.3062 51.7119 61.3781 51.7584 61.4585 51.7923C61.5389 51.8262 61.6236 51.8431 61.7124 51.8431H62.7788C63.0412 51.8431 63.2888 51.8875 63.5215 51.9764C63.7543 52.061 63.9574 52.1816 64.1309 52.3382C64.3044 52.4948 64.4398 52.6831 64.5371 52.9031C64.6387 53.1232 64.6895 53.3644 64.6895 53.6268V53.6522ZM63.9786 48.0726C63.9786 47.916 63.9489 47.77 63.8897 47.6346C63.8304 47.4949 63.7479 47.3743 63.6421 47.2728C63.5406 47.1712 63.42 47.0908 63.2803 47.0316C63.1449 46.9723 62.9989 46.9427 62.8423 46.9427H62.1949C62.0383 46.9427 61.8902 46.9723 61.7505 47.0316C61.6151 47.0908 61.4966 47.1712 61.3951 47.2728C61.2935 47.3743 61.2131 47.4949 61.1538 47.6346C61.0946 47.77 61.065 47.916 61.065 48.0726V48.6502C61.065 48.8068 61.0946 48.9549 61.1538 49.0945C61.2131 49.23 61.2935 49.3484 61.3951 49.45C61.4966 49.5516 61.6151 49.632 61.7505 49.6912C61.8902 49.7505 62.0383 49.7801 62.1949 49.7801H62.8423C62.9989 49.7801 63.1449 49.7505 63.2803 49.6912C63.42 49.632 63.5406 49.5516 63.6421 49.45C63.7479 49.3484 63.8304 49.23 63.8897 49.0945C63.9489 48.9549 63.9786 48.8068 63.9786 48.6502V48.0726ZM63.9468 53.5887C63.9468 53.4321 63.9172 53.2903 63.8579 53.1634C63.7987 53.0407 63.7183 52.937 63.6167 52.8524C63.5152 52.7677 63.3946 52.7021 63.2549 52.6556C63.1195 52.609 62.9735 52.5858 62.8169 52.5858H62.417C62.2605 52.5858 62.1123 52.609 61.9727 52.6556C61.8373 52.7021 61.7188 52.7677 61.6172 52.8524C61.5157 52.937 61.4353 53.0407 61.376 53.1634C61.3168 53.2903 61.2871 53.4321 61.2871 53.5887V53.6902C61.2871 53.8468 61.3168 53.9865 61.376 54.1092C61.4353 54.2319 61.5157 54.3356 61.6172 54.4202C61.7188 54.5091 61.8373 54.5768 61.9727 54.6234C62.1123 54.6699 62.2605 54.6932 62.417 54.6932H62.8169C62.9735 54.6932 63.1195 54.6699 63.2549 54.6234C63.3946 54.5768 63.5152 54.5091 63.6167 54.4202C63.7183 54.3356 63.7987 54.2319 63.8579 54.1092C63.9172 53.9865 63.9468 53.8468 63.9468 53.6902V53.5887Z" fill="white"/>
</g>
<g filter="url(#filter2_d_34_106)">
<path d="M24.9024 77.6014C24.9024 77.9103 24.8431 78.2002 24.7246 78.471C24.6104 78.7418 24.4517 78.9788 24.2486 79.1819C24.0455 79.3851 23.8064 79.5459 23.5313 79.6644C23.2605 79.7786 22.9706 79.8358 22.6617 79.8358H20.5987V83.3333H19.7798V74.2308H22.6617C22.9706 74.2308 23.2605 74.29 23.5313 74.4085C23.8064 74.5228 24.0455 74.6815 24.2486 74.8846C24.4517 75.0877 24.6104 75.3268 24.7246 75.6019C24.8431 75.8727 24.9024 76.1626 24.9024 76.4715V77.6014ZM24.0835 76.4715C24.0835 76.2684 24.0455 76.0801 23.9693 75.9066C23.8931 75.7288 23.7873 75.5744 23.6519 75.4432C23.5207 75.3078 23.3663 75.202 23.1885 75.1258C23.015 75.0496 22.8267 75.0115 22.6236 75.0115H20.5987V79.055H22.6236C22.8267 79.055 23.015 79.0169 23.1885 78.9407C23.3663 78.8646 23.5207 78.7609 23.6519 78.6297C23.7873 78.4985 23.8931 78.3462 23.9693 78.1727C24.0455 77.9949 24.0835 77.8045 24.0835 77.6014V76.4715ZM28.1206 77.576C27.9641 77.576 27.816 77.6056 27.6763 77.6649C27.5409 77.7241 27.4224 77.8045 27.3208 77.9061C27.2193 78.0076 27.1389 78.1282 27.0796 78.2679C27.0204 78.4033 26.9908 78.5493 26.9908 78.7059V83.3333H26.21V76.8333H26.4703L26.8955 77.4935C27.0733 77.2523 27.2955 77.0618 27.5621 76.9222C27.8329 76.7783 28.127 76.7064 28.4444 76.7064H28.9014V77.576H28.1206ZM34.2842 81.5496C34.2842 81.812 34.2334 82.0595 34.1319 82.2923C34.0345 82.525 33.8991 82.7282 33.7256 82.9017C33.5521 83.0752 33.349 83.2127 33.1163 83.3143C32.8835 83.4116 32.6359 83.4603 32.3736 83.4603H31.8531C31.5907 83.4603 31.3431 83.4116 31.1104 83.3143C30.8776 83.2127 30.6745 83.0752 30.501 82.9017C30.3275 82.7282 30.19 82.525 30.0884 82.2923C29.9911 82.0595 29.9424 81.812 29.9424 81.5496V78.617C29.9424 78.3546 29.9911 78.1071 30.0884 77.8743C30.19 77.6416 30.3275 77.4385 30.501 77.265C30.6745 77.0915 30.8776 76.956 31.1104 76.8587C31.3431 76.7571 31.5907 76.7064 31.8531 76.7064H32.3736C32.6359 76.7064 32.8835 76.7571 33.1163 76.8587C33.349 76.956 33.5521 77.0915 33.7256 77.265C33.8991 77.4385 34.0345 77.6416 34.1319 77.8743C34.2334 78.1071 34.2842 78.3546 34.2842 78.617V81.5496ZM33.5035 78.5726C33.5035 78.416 33.4738 78.27 33.4146 78.1346C33.3553 77.9949 33.2749 77.8743 33.1734 77.7728C33.0718 77.6712 32.9512 77.5908 32.8116 77.5316C32.6761 77.4723 32.5302 77.4427 32.3736 77.4427H31.8531C31.6965 77.4427 31.5484 77.4723 31.4087 77.5316C31.2733 77.5908 31.1548 77.6712 31.0533 77.7728C30.9517 77.8743 30.8713 77.9949 30.8121 78.1346C30.7528 78.27 30.7232 78.416 30.7232 78.5726V81.5941C30.7232 81.7506 30.7528 81.8987 30.8121 82.0384C30.8713 82.1738 30.9517 82.2923 31.0533 82.3939C31.1548 82.4954 31.2733 82.5758 31.4087 82.6351C31.5484 82.6943 31.6965 82.7239 31.8531 82.7239H32.3736C32.5302 82.7239 32.6761 82.6943 32.8116 82.6351C32.9512 82.5758 33.0718 82.4954 33.1734 82.3939C33.2749 82.2923 33.3553 82.1738 33.4146 82.0384C33.4738 81.8987 33.5035 81.7506 33.5035 81.5941V78.5726ZM39.9273 83.3333L39.4956 82.6732C39.3179 82.9144 39.0957 83.1069 38.8291 83.2508C38.5625 83.3904 38.2705 83.4603 37.9532 83.4603H37.7564C37.494 83.4603 37.2465 83.4116 37.0137 83.3143C36.781 83.2127 36.5778 83.0752 36.4043 82.9017C36.2308 82.7282 36.0933 82.525 35.9917 82.2923C35.8944 82.0595 35.8457 81.812 35.8457 81.5496V78.617C35.8457 78.3546 35.8944 78.1071 35.9917 77.8743C36.0933 77.6416 36.2308 77.4385 36.4043 77.265C36.5778 77.0915 36.781 76.956 37.0137 76.8587C37.2465 76.7571 37.494 76.7064 37.7564 76.7064H37.9532C38.2452 76.7064 38.516 76.7656 38.7657 76.8841C39.0153 77.0026 39.229 77.1676 39.4068 77.3792V74.2308H40.1875V83.3333H39.9273ZM39.4068 78.5726C39.4068 78.416 39.3772 78.27 39.3179 78.1346C39.2587 77.9949 39.1783 77.8743 39.0767 77.7728C38.9751 77.6712 38.8545 77.5908 38.7149 77.5316C38.5795 77.4723 38.4335 77.4427 38.2769 77.4427H37.7564C37.5998 77.4427 37.4517 77.4723 37.3121 77.5316C37.1766 77.5908 37.0581 77.6712 36.9566 77.7728C36.855 77.8743 36.7746 77.9949 36.7154 78.1346C36.6561 78.27 36.6265 78.416 36.6265 78.5726V81.5941C36.6265 81.7506 36.6561 81.8987 36.7154 82.0384C36.7746 82.1738 36.855 82.2923 36.9566 82.3939C37.0581 82.4954 37.1766 82.5758 37.3121 82.6351C37.4517 82.6943 37.5998 82.7239 37.7564 82.7239H38.2769C38.4335 82.7239 38.5795 82.6943 38.7149 82.6351C38.8545 82.5758 38.9751 82.4954 39.0767 82.3939C39.1783 82.2923 39.2587 82.1738 39.3179 82.0384C39.3772 81.8987 39.4068 81.7506 39.4068 81.5941V78.5726ZM45.8306 83.3333L45.399 82.6732C45.2212 82.9144 44.9991 83.1069 44.7325 83.2508C44.4659 83.3904 44.1739 83.4603 43.8565 83.4603H43.6597C43.3973 83.4603 43.1498 83.4116 42.917 83.3143C42.6843 83.2127 42.4812 83.0752 42.3077 82.9017C42.1342 82.7282 41.9966 82.525 41.8951 82.2923C41.7977 82.0595 41.7491 81.812 41.7491 81.5496V76.8333H42.5298V81.5941C42.5298 81.7506 42.5594 81.8987 42.6187 82.0384C42.6779 82.1738 42.7583 82.2923 42.8599 82.3939C42.9615 82.4954 43.08 82.5758 43.2154 82.6351C43.355 82.6943 43.5031 82.7239 43.6597 82.7239H44.1802C44.3368 82.7239 44.4828 82.6943 44.6182 82.6351C44.7579 82.5758 44.8785 82.4954 44.98 82.3939C45.0816 82.2923 45.162 82.1738 45.2212 82.0384C45.2805 81.8987 45.3101 81.7506 45.3101 81.5941V76.8333H46.0909V83.3333H45.8306ZM51.9942 81.5496C51.9942 81.812 51.9434 82.0595 51.8418 82.2923C51.7445 82.525 51.6091 82.7282 51.4356 82.9017C51.2621 83.0752 51.059 83.2127 50.8262 83.3143C50.5935 83.4116 50.3459 83.4603 50.0835 83.4603H49.563C49.3007 83.4603 49.0531 83.4116 48.8204 83.3143C48.5876 83.2127 48.3845 83.0752 48.211 82.9017C48.0375 82.7282 47.8999 82.525 47.7984 82.2923C47.701 82.0595 47.6524 81.812 47.6524 81.5496V78.617C47.6524 78.3546 47.701 78.1071 47.7984 77.8743C47.8999 77.6416 48.0375 77.4385 48.211 77.265C48.3845 77.0915 48.5876 76.956 48.8204 76.8587C49.0531 76.7571 49.3007 76.7064 49.563 76.7064H50.0835C50.3459 76.7064 50.5935 76.7571 50.8262 76.8587C51.059 76.956 51.2621 77.0915 51.4356 77.265C51.6091 77.4385 51.7445 77.6416 51.8418 77.8743C51.9434 78.1071 51.9942 78.3546 51.9942 78.617V78.8773L51.2134 79.0042V78.5726C51.2134 78.416 51.1838 78.27 51.1245 78.1346C51.0653 77.9949 50.9849 77.8743 50.8833 77.7728C50.7818 77.6712 50.6612 77.5908 50.5215 77.5316C50.3861 77.4723 50.2401 77.4427 50.0835 77.4427H49.563C49.4065 77.4427 49.2583 77.4723 49.1187 77.5316C48.9833 77.5908 48.8648 77.6712 48.7632 77.7728C48.6617 77.8743 48.5813 77.9949 48.522 78.1346C48.4628 78.27 48.4331 78.416 48.4331 78.5726V81.5941C48.4331 81.7506 48.4628 81.8987 48.522 82.0384C48.5813 82.1738 48.6617 82.2923 48.7632 82.3939C48.8648 82.4954 48.9833 82.5758 49.1187 82.6351C49.2583 82.6943 49.4065 82.7239 49.563 82.7239H50.0835C50.2401 82.7239 50.3861 82.6943 50.5215 82.6351C50.6612 82.5758 50.7818 82.4954 50.8833 82.3939C50.9849 82.2923 51.0653 82.1738 51.1245 82.0384C51.1838 81.8987 51.2134 81.7506 51.2134 81.5941V81.1624L51.9942 81.2894V81.5496ZM55.9234 83.3333C55.6864 83.3333 55.4621 83.2889 55.2505 83.2C55.0432 83.1111 54.8612 82.9884 54.7046 82.8318C54.5523 82.6753 54.4296 82.4933 54.3365 82.2859C54.2476 82.0786 54.2032 81.8564 54.2032 81.6194V77.576H53.0352V76.8333H54.2032V75.2718L54.9839 75.1448V76.8333H56.6343V77.576H54.9839V81.6575C54.9839 81.7887 55.0072 81.9114 55.0537 82.0257C55.1045 82.1357 55.1722 82.2331 55.2569 82.3177C55.3415 82.4023 55.441 82.47 55.5552 82.5208C55.6695 82.5674 55.7922 82.5906 55.9234 82.5906H56.6343V83.3333H55.9234ZM62.544 81.6829C62.544 81.9453 62.4911 82.1865 62.3853 82.4066C62.2795 82.6224 62.1356 82.8086 61.9537 82.9651C61.7717 83.1217 61.5601 83.2444 61.3189 83.3333C61.0819 83.4179 60.8322 83.4603 60.5699 83.4603H60.0494C59.787 83.4603 59.5352 83.4116 59.294 83.3143C59.057 83.2127 58.8475 83.0752 58.6656 82.9017C58.4878 82.7282 58.344 82.525 58.2339 82.2923C58.1281 82.0595 58.0752 81.812 58.0752 81.5496V81.2894L58.856 81.1624V81.5941C58.856 81.7506 58.8877 81.8987 58.9512 82.0384C59.0189 82.1738 59.1078 82.2923 59.2178 82.3939C59.3278 82.4954 59.4548 82.5758 59.5987 82.6351C59.7426 82.6943 59.8928 82.7239 60.0494 82.7239H60.5699C60.7264 82.7239 60.8767 82.7007 61.0205 82.6541C61.1644 82.6076 61.2914 82.542 61.4014 82.4573C61.5157 82.3685 61.6045 82.2627 61.668 82.14C61.7357 82.0172 61.7696 81.8776 61.7696 81.721C61.7696 81.4883 61.7188 81.2978 61.6172 81.1497C61.5157 81.0016 61.3802 80.8789 61.211 80.7816C61.0459 80.68 60.8555 80.5975 60.6397 80.534C60.4281 80.4663 60.2102 80.4007 59.9859 80.3372C59.7616 80.2695 59.5415 80.1933 59.3257 80.1087C59.1141 80.0241 58.9237 79.914 58.7544 79.7786C58.5894 79.639 58.4561 79.4655 58.3545 79.2581C58.253 79.0508 58.2022 78.7926 58.2022 78.4837C58.2022 78.2213 58.253 77.9822 58.3545 77.7664C58.4561 77.5464 58.5936 77.3581 58.7671 77.2015C58.9406 77.0449 59.1416 76.9243 59.3702 76.8397C59.6029 76.7508 59.8505 76.7064 60.1128 76.7064H60.5699C60.8322 76.7064 61.0798 76.7571 61.3125 76.8587C61.5453 76.956 61.7484 77.0915 61.9219 77.265C62.0954 77.4385 62.2308 77.6416 62.3282 77.8743C62.4297 78.1071 62.4805 78.3546 62.4805 78.617V78.6424L61.6997 78.7693V78.5726C61.6997 78.416 61.6701 78.27 61.6109 78.1346C61.5516 77.9949 61.4712 77.8743 61.3697 77.7728C61.2681 77.6712 61.1475 77.5908 61.0079 77.5316C60.8724 77.4723 60.7264 77.4427 60.5699 77.4427H60.1128C59.9563 77.4427 59.8081 77.466 59.6685 77.5125C59.5331 77.5591 59.4146 77.6268 59.313 77.7156C59.2115 77.8003 59.1311 77.904 59.0718 78.0267C59.0126 78.1494 58.9829 78.289 58.9829 78.4456C58.9829 78.6699 59.0337 78.854 59.1353 78.9979C59.2369 79.1375 59.3702 79.256 59.5352 79.3533C59.7045 79.4507 59.8949 79.5332 60.1065 79.6009C60.3223 79.6644 60.5402 79.7321 60.7603 79.804C60.9846 79.8717 61.2025 79.95 61.4141 80.0389C61.6299 80.1277 61.8204 80.242 61.9854 80.3817C62.1547 80.5213 62.2901 80.6969 62.3916 80.9085C62.4932 81.1159 62.544 81.374 62.544 81.6829Z" fill="white"/>
</g>
<rect x="8.5" y="2.5" width="65" height="88.3333" rx="7.5" stroke="#52796F" stroke-width="5"/>
<path d="M17.6666 31.5H64.3333" stroke="#52796F" stroke-width="5" stroke-linecap="round"/>
<path d="M17.6666 63H64.3333" stroke="#52796F" stroke-width="5" stroke-linecap="round"/>
<defs>
<filter id="filter0_d_34_106" x="9.80029" y="13.2308" width="62.6597" height="17.2295" filterUnits="userSpaceOnUse" color-interpolation-filters="sRGB">
<feFlood flood-opacity="0" result="BackgroundImageFix"/>
<feColorMatrix in="SourceAlpha" type="matrix" values="0 0 0 0 0 0 0 0 0 0 0 0 0 0 0 0 0 0 127 0" result="hardAlpha"/>
<feOffset dy="4"/>
<feGaussianBlur stdDeviation="2"/>
<feComposite in2="hardAlpha" operator="out"/>
<feColorMatrix type="matrix" values="0 0 0 0 0 0 0 0 0 0 0 0 0 0 0 0 0 0 0.25 0"/>
<feBlend mode="normal" in2="BackgroundImageFix" result="effect1_dropShadow_34_106"/>
<feBlend mode="normal" in="SourceGraphic" in2="effect1_dropShadow_34_106" result="shape"/>
</filter>
<filter id="filter1_d_34_106" x="0.500977" y="30.7308" width="81.252" height="45.7051" filterUnits="userSpaceOnUse" color-interpolation-filters="sRGB">
<feFlood flood-opacity="0" result="BackgroundImageFix"/>
<feColorMatrix in="SourceAlpha" type="matrix" values="0 0 0 0 0 0 0 0 0 0 0 0 0 0 0 0 0 0 127 0" result="hardAlpha"/>
<feOffset dy="4"/>
<feGaussianBlur stdDeviation="8.5"/>
<feComposite in2="hardAlpha" operator="out"/>
<feColorMatrix type="matrix" values="0 0 0 0 0 0 0 0 0 0 0 0 0 0 0 0 0 0 0.25 0"/>
<feBlend mode="normal" in2="BackgroundImageFix" result="effect1_dropShadow_34_106"/>
<feBlend mode="normal" in="SourceGraphic" in2="effect1_dropShadow_34_106" result="shape"/>
</filter>
<filter id="filter2_d_34_106" x="2.77979" y="61.2308" width="76.7642" height="43.2295" filterUnits="userSpaceOnUse" color-interpolation-filters="sRGB">
<feFlood flood-opacity="0" result="BackgroundImageFix"/>
<feColorMatrix in="SourceAlpha" type="matrix" values="0 0 0 0 0 0 0 0 0 0 0 0 0 0 0 0 0 0 127 0" result="hardAlpha"/>
<feOffset dy="4"/>
<feGaussianBlur stdDeviation="8.5"/>
<feComposite in2="hardAlpha" operator="out"/>
<feColorMatrix type="matrix" values="0 0 0 0 0 0 0 0 0 0 0 0 0 0 0 0 0 0 0.25 0"/>
<feBlend mode="normal" in2="BackgroundImageFix" result="effect1_dropShadow_34_106"/>
<feBlend mode="normal" in="SourceGraphic" in2="effect1_dropShadow_34_106" result="shape"/>
</filter>
</defs>
</svg>
