<svg width="68" height="55" viewBox="0 0 68 55" fill="none" xmlns="http://www.w3.org/2000/svg">
<g filter="url(#filter0_d_34_35)">
<path fill-rule="evenodd" clip-rule="evenodd" d="M59 0.284485C57.6 0.284485 56.35 0.848069 55.45 1.7703L24 34.0483L12.55 22.2643C11.65 21.342 10.4 20.7785 9 20.7785C6.25 20.7785 4 23.084 4 25.902C4 27.3365 4.55 28.6174 5.45 29.5396L20.45 44.9101C21.35 45.8323 22.6 46.3959 24 46.3959C25.4 46.3959 26.65 45.8323 27.55 44.9101L62.55 9.04566C63.45 8.12343 64 6.84256 64 5.40798C64 2.59006 61.75 0.284485 59 0.284485Z" fill="#52796F"/>
</g>
<defs>
<filter id="filter0_d_34_35" x="0" y="0.284485" width="68" height="54.1115" filterUnits="userSpaceOnUse" color-interpolation-filters="sRGB">
<feFlood flood-opacity="0" result="BackgroundImageFix"/>
<feColorMatrix in="SourceAlpha" type="matrix" values="0 0 0 0 0 0 0 0 0 0 0 0 0 0 0 0 0 0 127 0" result="hardAlpha"/>
<feOffset dy="4"/>
<feGaussianBlur stdDeviation="2"/>
<feComposite in2="hardAlpha" operator="out"/>
<feColorMatrix type="matrix" values="0 0 0 0 0 0 0 0 0 0 0 0 0 0 0 0 0 0 0.25 0"/>
<feBlend mode="normal" in2="BackgroundImageFix" result="effect1_dropShadow_34_35"/>
<feBlend mode="normal" in="SourceGraphic" in2="effect1_dropShadow_34_35" result="shape"/>
</filter>
</defs>
</svg>
